<?xml version="1.0" standalone="no"?>
<!DOCTYPE svg PUBLIC "-//W3C//DTD SVG 20010904//EN"
  "http://www.w3.org/TR/2001/REC-SVG-20010904/DTD/svg10.dtd">
<svg width="24" height="21">
  <circle cx="0" cy="0" r="1" fill="white"/>
  <circle cx="1" cy="0" r="1" fill="white"/>
  <circle cx="2" cy="0" r="1" fill="white"/>
  <circle cx="3" cy="0" r="1" fill="white"/>
  <circle cx="4" cy="0" r="1" fill="white"/>
  <circle cx="5" cy="0" r="1" fill="white"/>
  <circle cx="6" cy="0" r="1" fill="white"/>
  <circle cx="7" cy="0" r="1" fill="white"/>
  <circle cx="8" cy="0" r="1" fill="rgba(240,199,199,1)"/>
  <circle cx="9" cy="0" r="1" fill="rgba(199,65,65,1)"/>
  <circle cx="10" cy="0" r="1" fill="rgba(75.6863%,21.9593%,21.9593%,1)"/>
  <circle cx="11" cy="0" r="1" fill="rgba(194,54,54,1)"/>
  <circle cx="12" cy="0" r="1" fill="rgba(194,53,53,1)"/>
  <circle cx="13" cy="0" r="1" fill="rgba(76.0784%,21.9593%,21.9593%,1)"/>
  <circle cx="14" cy="0" r="1" fill="rgba(78.0377%,29.4102%,29.4102%,1)"/>
  <circle cx="15" cy="0" r="1" fill="rgba(245,219,219,1)"/>
  <circle cx="16" cy="0" r="1" fill="white"/>
  <circle cx="17" cy="0" r="1" fill="white"/>
  <circle cx="18" cy="0" r="1" fill="white"/>
  <circle cx="19" cy="0" r="1" fill="white"/>
  <circle cx="20" cy="0" r="1" fill="white"/>
  <circle cx="21" cy="0" r="1" fill="white"/>
  <circle cx="22" cy="0" r="1" fill="white"/>
  <circle cx="23" cy="0" r="1" fill="white"/>
  <circle cx="0" cy="1" r="1" fill="white"/>
  <circle cx="1" cy="1" r="1" fill="white"/>
  <circle cx="2" cy="1" r="1" fill="white"/>
  <circle cx="3" cy="1" r="1" fill="white"/>
  <circle cx="4" cy="1" r="1" fill="white"/>
  <circle cx="5" cy="1" r="1" fill="white"/>
  <circle cx="6" cy="1" r="1" fill="white"/>
  <circle cx="7" cy="1" r="1" fill="rgba(239,199,199,1)"/>
  <circle cx="8" cy="1" r="1" fill="rgba(196,57,57,1)"/>
  <circle cx="9" cy="1" r="1" fill="rgba(200,55,55,1)"/>
  <circle cx="10" cy="1" r="1" fill="rgba(200,55,55,1)"/>
  <circle cx="11" cy="1" r="1" fill="rgba(200,55,55,1)"/>
  <circle cx="12" cy="1" r="1" fill="rgba(200,55,55,1)"/>
  <circle cx="13" cy="1" r="1" fill="rgba(200,55,55,1)"/>
  <circle cx="14" cy="1" r="1" fill="rgba(199,55,55,1)"/>
  <circle cx="15" cy="1" r="1" fill="rgba(77.6455%,23.5294%,23.5294%,1)"/>
  <circle cx="16" cy="1" r="1" fill="rgba(246,224,224,1)"/>
  <circle cx="17" cy="1" r="1" fill="white"/>
  <circle cx="18" cy="1" r="1" fill="white"/>
  <circle cx="19" cy="1" r="1" fill="white"/>
  <circle cx="20" cy="1" r="1" fill="white"/>
  <circle cx="21" cy="1" r="1" fill="white"/>
  <circle cx="22" cy="1" r="1" fill="white"/>
  <circle cx="23" cy="1" r="1" fill="white"/>
  <circle cx="0" cy="2" r="1" fill="white"/>
  <circle cx="1" cy="2" r="1" fill="white"/>
  <circle cx="2" cy="2" r="1" fill="white"/>
  <circle cx="3" cy="2" r="1" fill="white"/>
  <circle cx="4" cy="2" r="1" fill="white"/>
  <circle cx="5" cy="2" r="1" fill="white"/>
  <circle cx="6" cy="2" r="1" fill="rgba(253,248,248,1)"/>
  <circle cx="7" cy="2" r="1" fill="rgba(77.2549%,24.3122%,24.3122%,1)"/>
  <circle cx="8" cy="2" r="1" fill="rgba(200,55,55,1)"/>
  <circle cx="9" cy="2" r="1" fill="rgba(200,55,55,1)"/>
  <circle cx="10" cy="2" r="1" fill="rgba(200,55,55,1)"/>
  <circle cx="11" cy="2" r="1" fill="rgba(200,55,55,1)"/>
  <circle cx="12" cy="2" r="1" fill="rgba(200,55,55,1)"/>
  <circle cx="13" cy="2" r="1" fill="rgba(200,55,55,1)"/>
  <circle cx="14" cy="2" r="1" fill="rgba(200,55,55,1)"/>
  <circle cx="15" cy="2" r="1" fill="rgba(199,55,55,1)"/>
  <circle cx="16" cy="2" r="1" fill="rgba(200,81,81,1)"/>
  <circle cx="17" cy="2" r="1" fill="white"/>
  <circle cx="18" cy="2" r="1" fill="white"/>
  <circle cx="19" cy="2" r="1" fill="white"/>
  <circle cx="20" cy="2" r="1" fill="white"/>
  <circle cx="21" cy="2" r="1" fill="white"/>
  <circle cx="22" cy="2" r="1" fill="white"/>
  <circle cx="23" cy="2" r="1" fill="white"/>
  <circle cx="0" cy="3" r="1" fill="white"/>
  <circle cx="1" cy="3" r="1" fill="white"/>
  <circle cx="2" cy="3" r="1" fill="white"/>
  <circle cx="3" cy="3" r="1" fill="white"/>
  <circle cx="4" cy="3" r="1" fill="white"/>
  <circle cx="5" cy="3" r="1" fill="white"/>
  <circle cx="6" cy="3" r="1" fill="rgba(236,188,188,1)"/>
  <circle cx="7" cy="3" r="1" fill="rgba(75.2941%,21.1749%,21.1749%,1)"/>
  <circle cx="8" cy="3" r="1" fill="rgba(200,55,55,1)"/>
  <circle cx="9" cy="3" r="1" fill="rgba(200,55,55,1)"/>
  <circle cx="10" cy="3" r="1" fill="rgba(200,55,55,1)"/>
  <circle cx="11" cy="3" r="1" fill="rgba(200,55,55,1)"/>
  <circle cx="12" cy="3" r="1" fill="rgba(200,55,55,1)"/>
  <circle cx="13" cy="3" r="1" fill="rgba(200,55,55,1)"/>
  <circle cx="14" cy="3" r="1" fill="rgba(200,55,55,1)"/>
  <circle cx="15" cy="3" r="1" fill="rgba(200,55,55,1)"/>
  <circle cx="16" cy="3" r="1" fill="rgba(195,57,57,1)"/>
  <circle cx="17" cy="3" r="1" fill="rgba(245,219,219,1)"/>
  <circle cx="18" cy="3" r="1" fill="white"/>
  <circle cx="19" cy="3" r="1" fill="white"/>
  <circle cx="20" cy="3" r="1" fill="white"/>
  <circle cx="21" cy="3" r="1" fill="white"/>
  <circle cx="22" cy="3" r="1" fill="white"/>
  <circle cx="23" cy="3" r="1" fill="white"/>
  <circle cx="0" cy="4" r="1" fill="white"/>
  <circle cx="1" cy="4" r="1" fill="white"/>
  <circle cx="2" cy="4" r="1" fill="white"/>
  <circle cx="3" cy="4" r="1" fill="white"/>
  <circle cx="4" cy="4" r="1" fill="white"/>
  <circle cx="5" cy="4" r="1" fill="white"/>
  <circle cx="6" cy="4" r="1" fill="rgba(221,143,143,1)"/>
  <circle cx="7" cy="4" r="1" fill="rgba(199,55,55,1)"/>
  <circle cx="8" cy="4" r="1" fill="rgba(200,55,55,1)"/>
  <circle cx="9" cy="4" r="1" fill="rgba(200,55,55,1)"/>
  <circle cx="10" cy="4" r="1" fill="rgba(200,55,55,1)"/>
  <circle cx="11" cy="4" r="1" fill="rgba(200,55,55,1)"/>
  <circle cx="12" cy="4" r="1" fill="rgba(200,55,55,1)"/>
  <circle cx="13" cy="4" r="1" fill="rgba(200,55,55,1)"/>
  <circle cx="14" cy="4" r="1" fill="rgba(200,55,55,1)"/>
  <circle cx="15" cy="4" r="1" fill="rgba(200,55,55,1)"/>
  <circle cx="16" cy="4" r="1" fill="rgba(75.6863%,21.1749%,21.1749%,1)"/>
  <circle cx="17" cy="4" r="1" fill="rgba(234,177,177,1)"/>
  <circle cx="18" cy="4" r="1" fill="white"/>
  <circle cx="19" cy="4" r="1" fill="white"/>
  <circle cx="20" cy="4" r="1" fill="white"/>
  <circle cx="21" cy="4" r="1" fill="white"/>
  <circle cx="22" cy="4" r="1" fill="white"/>
  <circle cx="23" cy="4" r="1" fill="white"/>
  <circle cx="0" cy="5" r="1" fill="white"/>
  <circle cx="1" cy="5" r="1" fill="white"/>
  <circle cx="2" cy="5" r="1" fill="white"/>
  <circle cx="3" cy="5" r="1" fill="white"/>
  <circle cx="4" cy="5" r="1" fill="white"/>
  <circle cx="5" cy="5" r="1" fill="white"/>
  <circle cx="6" cy="5" r="1" fill="rgba(85.8824%,53.3318%,53.3318%,1)"/>
  <circle cx="7" cy="5" r="1" fill="rgba(200,55,55,1)"/>
  <circle cx="8" cy="5" r="1" fill="rgba(200,55,55,1)"/>
  <circle cx="9" cy="5" r="1" fill="rgba(200,55,55,1)"/>
  <circle cx="10" cy="5" r="1" fill="rgba(200,55,55,1)"/>
  <circle cx="11" cy="5" r="1" fill="rgba(200,55,55,1)"/>
  <circle cx="12" cy="5" r="1" fill="rgba(200,55,55,1)"/>
  <circle cx="13" cy="5" r="1" fill="rgba(200,55,55,1)"/>
  <circle cx="14" cy="5" r="1" fill="rgba(200,55,55,1)"/>
  <circle cx="15" cy="5" r="1" fill="rgba(200,55,55,1)"/>
  <circle cx="16" cy="5" r="1" fill="rgba(76.0784%,21.1749%,21.1749%,1)"/>
  <circle cx="17" cy="5" r="1" fill="rgba(233,173,173,1)"/>
  <circle cx="18" cy="5" r="1" fill="white"/>
  <circle cx="19" cy="5" r="1" fill="white"/>
  <circle cx="20" cy="5" r="1" fill="white"/>
  <circle cx="21" cy="5" r="1" fill="white"/>
  <circle cx="22" cy="5" r="1" fill="white"/>
  <circle cx="23" cy="5" r="1" fill="white"/>
  <circle cx="0" cy="6" r="1" fill="white"/>
  <circle cx="1" cy="6" r="1" fill="white"/>
  <circle cx="2" cy="6" r="1" fill="white"/>
  <circle cx="3" cy="6" r="1" fill="white"/>
  <circle cx="4" cy="6" r="1" fill="white"/>
  <circle cx="5" cy="6" r="1" fill="white"/>
  <circle cx="6" cy="6" r="1" fill="rgba(233,175,175,1)"/>
  <circle cx="7" cy="6" r="1" fill="rgba(75.2941%,21.1749%,21.1749%,1)"/>
  <circle cx="8" cy="6" r="1" fill="rgba(200,55,55,1)"/>
  <circle cx="9" cy="6" r="1" fill="rgba(200,55,55,1)"/>
  <circle cx="10" cy="6" r="1" fill="rgba(200,55,55,1)"/>
  <circle cx="11" cy="6" r="1" fill="rgba(200,55,55,1)"/>
  <circle cx="12" cy="6" r="1" fill="rgba(200,55,55,1)"/>
  <circle cx="13" cy="6" r="1" fill="rgba(200,55,55,1)"/>
  <circle cx="14" cy="6" r="1" fill="rgba(200,55,55,1)"/>
  <circle cx="15" cy="6" r="1" fill="rgba(200,55,55,1)"/>
  <circle cx="16" cy="6" r="1" fill="rgba(75.6863%,21.5671%,21.5671%,1)"/>
  <circle cx="17" cy="6" r="1" fill="rgba(241,206,206,1)"/>
  <circle cx="18" cy="6" r="1" fill="white"/>
  <circle cx="19" cy="6" r="1" fill="white"/>
  <circle cx="20" cy="6" r="1" fill="white"/>
  <circle cx="21" cy="6" r="1" fill="white"/>
  <circle cx="22" cy="6" r="1" fill="white"/>
  <circle cx="23" cy="6" r="1" fill="white"/>
  <circle cx="0" cy="7" r="1" fill="white"/>
  <circle cx="1" cy="7" r="1" fill="white"/>
  <circle cx="2" cy="7" r="1" fill="white"/>
  <circle cx="3" cy="7" r="1" fill="white"/>
  <circle cx="4" cy="7" r="1" fill="white"/>
  <circle cx="5" cy="7" r="1" fill="white"/>
  <circle cx="6" cy="7" r="1" fill="rgba(250,237,237,1)"/>
  <circle cx="7" cy="7" r="1" fill="rgba(77.2534%,22.7451%,22.7451%,1)"/>
  <circle cx="8" cy="7" r="1" fill="rgba(200,55,55,1)"/>
  <circle cx="9" cy="7" r="1" fill="rgba(200,55,55,1)"/>
  <circle cx="10" cy="7" r="1" fill="rgba(200,55,55,1)"/>
  <circle cx="11" cy="7" r="1" fill="rgba(200,55,55,1)"/>
  <circle cx="12" cy="7" r="1" fill="rgba(200,55,55,1)"/>
  <circle cx="13" cy="7" r="1" fill="rgba(200,55,55,1)"/>
  <circle cx="14" cy="7" r="1" fill="rgba(200,55,55,1)"/>
  <circle cx="15" cy="7" r="1" fill="rgba(200,55,55,1)"/>
  <circle cx="16" cy="7" r="1" fill="rgba(198,65,65,1)"/>
  <circle cx="17" cy="7" r="1" fill="rgba(254,252,252,1)"/>
  <circle cx="18" cy="7" r="1" fill="white"/>
  <circle cx="19" cy="7" r="1" fill="white"/>
  <circle cx="20" cy="7" r="1" fill="white"/>
  <circle cx="21" cy="7" r="1" fill="white"/>
  <circle cx="22" cy="7" r="1" fill="white"/>
  <circle cx="23" cy="7" r="1" fill="white"/>
  <circle cx="0" cy="8" r="1" fill="white"/>
  <circle cx="1" cy="8" r="1" fill="white"/>
  <circle cx="2" cy="8" r="1" fill="white"/>
  <circle cx="3" cy="8" r="1" fill="white"/>
  <circle cx="4" cy="8" r="1" fill="white"/>
  <circle cx="5" cy="8" r="1" fill="white"/>
  <circle cx="6" cy="8" r="1" fill="white"/>
  <circle cx="7" cy="8" r="1" fill="rgba(224,155,155,1)"/>
  <circle cx="8" cy="8" r="1" fill="rgba(75.6863%,21.5671%,21.5671%,1)"/>
  <circle cx="9" cy="8" r="1" fill="rgba(200,55,55,1)"/>
  <circle cx="10" cy="8" r="1" fill="rgba(200,55,55,1)"/>
  <circle cx="11" cy="8" r="1" fill="rgba(200,55,55,1)"/>
  <circle cx="12" cy="8" r="1" fill="rgba(200,55,55,1)"/>
  <circle cx="13" cy="8" r="1" fill="rgba(200,55,55,1)"/>
  <circle cx="14" cy="8" r="1" fill="rgba(200,55,55,1)"/>
  <circle cx="15" cy="8" r="1" fill="rgba(76.8627%,21.9593%,21.9593%,1)"/>
  <circle cx="16" cy="8" r="1" fill="rgba(239,195,195,1)"/>
  <circle cx="17" cy="8" r="1" fill="white"/>
  <circle cx="18" cy="8" r="1" fill="white"/>
  <circle cx="19" cy="8" r="1" fill="white"/>
  <circle cx="20" cy="8" r="1" fill="white"/>
  <circle cx="21" cy="8" r="1" fill="white"/>
  <circle cx="22" cy="8" r="1" fill="white"/>
  <circle cx="23" cy="8" r="1" fill="white"/>
  <circle cx="0" cy="9" r="1" fill="white"/>
  <circle cx="1" cy="9" r="1" fill="white"/>
  <circle cx="2" cy="9" r="1" fill="white"/>
  <circle cx="3" cy="9" r="1" fill="white"/>
  <circle cx="4" cy="9" r="1" fill="white"/>
  <circle cx="5" cy="9" r="1" fill="white"/>
  <circle cx="6" cy="9" r="1" fill="white"/>
  <circle cx="7" cy="9" r="1" fill="white"/>
  <circle cx="8" cy="9" r="1" fill="rgba(220,144,144,1)"/>
  <circle cx="9" cy="9" r="1" fill="rgba(197,57,57,1)"/>
  <circle cx="10" cy="9" r="1" fill="rgba(196,54,54,1)"/>
  <circle cx="11" cy="9" r="1" fill="rgba(200,55,55,1)"/>
  <circle cx="12" cy="9" r="1" fill="rgba(200,55,55,1)"/>
  <circle cx="13" cy="9" r="1" fill="rgba(194,53,53,1)"/>
  <circle cx="14" cy="9" r="1" fill="rgba(197,58,58,1)"/>
  <circle cx="15" cy="9" r="1" fill="rgba(232,179,179,1)"/>
  <circle cx="16" cy="9" r="1" fill="white"/>
  <circle cx="17" cy="9" r="1" fill="white"/>
  <circle cx="18" cy="9" r="1" fill="white"/>
  <circle cx="19" cy="9" r="1" fill="white"/>
  <circle cx="20" cy="9" r="1" fill="white"/>
  <circle cx="21" cy="9" r="1" fill="white"/>
  <circle cx="22" cy="9" r="1" fill="white"/>
  <circle cx="23" cy="9" r="1" fill="white"/>
  <circle cx="0" cy="10" r="1" fill="white"/>
  <circle cx="1" cy="10" r="1" fill="white"/>
  <circle cx="2" cy="10" r="1" fill="white"/>
  <circle cx="3" cy="10" r="1" fill="white"/>
  <circle cx="4" cy="10" r="1" fill="white"/>
  <circle cx="5" cy="10" r="1" fill="white"/>
  <circle cx="6" cy="10" r="1" fill="white"/>
  <circle cx="7" cy="10" r="1" fill="white"/>
  <circle cx="8" cy="10" r="1" fill="white"/>
  <circle cx="9" cy="10" r="1" fill="rgba(246,221,221,1)"/>
  <circle cx="10" cy="10" r="1" fill="rgba(221,142,142,1)"/>
  <circle cx="11" cy="10" r="1" fill="rgba(79.6063%,38.0392%,38.0392%,1)"/>
  <circle cx="12" cy="10" r="1" fill="rgba(203,100,100,1)"/>
  <circle cx="13" cy="10" r="1" fill="rgba(226,157,157,1)"/>
  <circle cx="14" cy="10" r="1" fill="rgba(249,232,232,1)"/>
  <circle cx="15" cy="10" r="1" fill="white"/>
  <circle cx="16" cy="10" r="1" fill="white"/>
  <circle cx="17" cy="10" r="1" fill="white"/>
  <circle cx="18" cy="10" r="1" fill="white"/>
  <circle cx="19" cy="10" r="1" fill="white"/>
  <circle cx="20" cy="10" r="1" fill="white"/>
  <circle cx="21" cy="10" r="1" fill="white"/>
  <circle cx="22" cy="10" r="1" fill="white"/>
  <circle cx="23" cy="10" r="1" fill="white"/>
  <circle cx="0" cy="11" r="1" fill="white"/>
  <circle cx="1" cy="11" r="1" fill="white"/>
  <circle cx="2" cy="11" r="1" fill="white"/>
  <circle cx="3" cy="11" r="1" fill="white"/>
  <circle cx="4" cy="11" r="1" fill="rgba(244,215,215,1)"/>
  <circle cx="5" cy="11" r="1" fill="rgba(85.8808%,47.8431%,47.8431%,1)"/>
  <circle cx="6" cy="11" r="1" fill="rgba(81.1749%,31.3725%,31.3725%,1)"/>
  <circle cx="7" cy="11" r="1" fill="rgba(80.3922%,28.6259%,28.6259%,1)"/>
  <circle cx="8" cy="11" r="1" fill="rgba(80.3922%,28.6259%,28.6259%,1)"/>
  <circle cx="9" cy="11" r="1" fill="rgba(80.3922%,28.6259%,28.6259%,1)"/>
  <circle cx="10" cy="11" r="1" fill="rgba(80.3922%,28.6259%,28.6259%,1)"/>
  <circle cx="11" cy="11" r="1" fill="rgba(80.3922%,28.6259%,28.6259%,1)"/>
  <circle cx="12" cy="11" r="1" fill="rgba(80.3922%,28.6259%,28.6259%,1)"/>
  <circle cx="13" cy="11" r="1" fill="rgba(80.3922%,28.6259%,28.6259%,1)"/>
  <circle cx="14" cy="11" r="1" fill="rgba(80.3922%,28.6259%,28.6259%,1)"/>
  <circle cx="15" cy="11" r="1" fill="rgba(80.3922%,28.6259%,28.6259%,1)"/>
  <circle cx="16" cy="11" r="1" fill="rgba(80.3922%,28.6259%,28.6259%,1)"/>
  <circle cx="17" cy="11" r="1" fill="rgba(81.5671%,34.1176%,34.1176%,1)"/>
  <circle cx="18" cy="11" r="1" fill="rgba(222,133,133,1)"/>
  <circle cx="19" cy="11" r="1" fill="rgba(247,227,227,1)"/>
  <circle cx="20" cy="11" r="1" fill="white"/>
  <circle cx="21" cy="11" r="1" fill="white"/>
  <circle cx="22" cy="11" r="1" fill="white"/>
  <circle cx="23" cy="11" r="1" fill="white"/>
  <circle cx="0" cy="12" r="1" fill="white"/>
  <circle cx="1" cy="12" r="1" fill="white"/>
  <circle cx="2" cy="12" r="1" fill="white"/>
  <circle cx="3" cy="12" r="1" fill="rgba(226,149,149,1)"/>
  <circle cx="4" cy="12" r="1" fill="rgba(79.2142%,25.098%,25.098%,1)"/>
  <circle cx="5" cy="12" r="1" fill="rgba(78.4314%,21.9593%,21.9593%,1)"/>
  <circle cx="6" cy="12" r="1" fill="rgba(200,55,55,1)"/>
  <circle cx="7" cy="12" r="1" fill="rgba(200,55,55,1)"/>
  <circle cx="8" cy="12" r="1" fill="rgba(200,55,55,1)"/>
  <circle cx="9" cy="12" r="1" fill="rgba(200,55,55,1)"/>
  <circle cx="10" cy="12" r="1" fill="rgba(200,55,55,1)"/>
  <circle cx="11" cy="12" r="1" fill="rgba(200,55,55,1)"/>
  <circle cx="12" cy="12" r="1" fill="rgba(200,55,55,1)"/>
  <circle cx="13" cy="12" r="1" fill="rgba(200,55,55,1)"/>
  <circle cx="14" cy="12" r="1" fill="rgba(200,55,55,1)"/>
  <circle cx="15" cy="12" r="1" fill="rgba(200,55,55,1)"/>
  <circle cx="16" cy="12" r="1" fill="rgba(200,55,55,1)"/>
  <circle cx="17" cy="12" r="1" fill="rgba(200,55,55,1)"/>
  <circle cx="18" cy="12" r="1" fill="rgba(78.8235%,23.1357%,23.1357%,1)"/>
  <circle cx="19" cy="12" r="1" fill="rgba(79.2157%,24.7044%,24.7044%,1)"/>
  <circle cx="20" cy="12" r="1" fill="rgba(232,172,172,1)"/>
  <circle cx="21" cy="12" r="1" fill="white"/>
  <circle cx="22" cy="12" r="1" fill="white"/>
  <circle cx="23" cy="12" r="1" fill="white"/>
  <circle cx="0" cy="13" r="1" fill="white"/>
  <circle cx="1" cy="13" r="1" fill="white"/>
  <circle cx="2" cy="13" r="1" fill="rgba(228,157,157,1)"/>
  <circle cx="3" cy="13" r="1" fill="rgba(79.6078%,25.0965%,25.0965%,1)"/>
  <circle cx="4" cy="13" r="1" fill="rgba(200,55,55,1)"/>
  <circle cx="5" cy="13" r="1" fill="rgba(200,55,55,1)"/>
  <circle cx="6" cy="13" r="1" fill="rgba(200,55,55,1)"/>
  <circle cx="7" cy="13" r="1" fill="rgba(200,55,55,1)"/>
  <circle cx="8" cy="13" r="1" fill="rgba(200,55,55,1)"/>
  <circle cx="9" cy="13" r="1" fill="rgba(200,55,55,1)"/>
  <circle cx="10" cy="13" r="1" fill="rgba(200,55,55,1)"/>
  <circle cx="11" cy="13" r="1" fill="rgba(200,55,55,1)"/>
  <circle cx="12" cy="13" r="1" fill="rgba(200,55,55,1)"/>
  <circle cx="13" cy="13" r="1" fill="rgba(200,55,55,1)"/>
  <circle cx="14" cy="13" r="1" fill="rgba(200,55,55,1)"/>
  <circle cx="15" cy="13" r="1" fill="rgba(200,55,55,1)"/>
  <circle cx="16" cy="13" r="1" fill="rgba(200,55,55,1)"/>
  <circle cx="17" cy="13" r="1" fill="rgba(200,55,55,1)"/>
  <circle cx="18" cy="13" r="1" fill="rgba(200,55,55,1)"/>
  <circle cx="19" cy="13" r="1" fill="rgba(200,55,55,1)"/>
  <circle cx="20" cy="13" r="1" fill="rgba(79.2157%,24.7044%,24.7044%,1)"/>
  <circle cx="21" cy="13" r="1" fill="rgba(232,173,173,1)"/>
  <circle cx="22" cy="13" r="1" fill="white"/>
  <circle cx="23" cy="13" r="1" fill="white"/>
  <circle cx="0" cy="14" r="1" fill="white"/>
  <circle cx="1" cy="14" r="1" fill="rgba(242,208,208,1)"/>
  <circle cx="2" cy="14" r="1" fill="rgba(79.2142%,23.9216%,23.9216%,1)"/>
  <circle cx="3" cy="14" r="1" fill="rgba(200,55,55,1)"/>
  <circle cx="4" cy="14" r="1" fill="rgba(200,55,55,1)"/>
  <circle cx="5" cy="14" r="1" fill="rgba(200,55,55,1)"/>
  <circle cx="6" cy="14" r="1" fill="rgba(200,55,55,1)"/>
  <circle cx="7" cy="14" r="1" fill="rgba(200,55,55,1)"/>
  <circle cx="8" cy="14" r="1" fill="rgba(200,55,55,1)"/>
  <circle cx="9" cy="14" r="1" fill="rgba(200,55,55,1)"/>
  <circle cx="10" cy="14" r="1" fill="rgba(200,55,55,1)"/>
  <circle cx="11" cy="14" r="1" fill="rgba(200,55,55,1)"/>
  <circle cx="12" cy="14" r="1" fill="rgba(200,55,55,1)"/>
  <circle cx="13" cy="14" r="1" fill="rgba(200,55,55,1)"/>
  <circle cx="14" cy="14" r="1" fill="rgba(200,55,55,1)"/>
  <circle cx="15" cy="14" r="1" fill="rgba(200,55,55,1)"/>
  <circle cx="16" cy="14" r="1" fill="rgba(200,55,55,1)"/>
  <circle cx="17" cy="14" r="1" fill="rgba(200,55,55,1)"/>
  <circle cx="18" cy="14" r="1" fill="rgba(200,55,55,1)"/>
  <circle cx="19" cy="14" r="1" fill="rgba(200,55,55,1)"/>
  <circle cx="20" cy="14" r="1" fill="rgba(200,55,55,1)"/>
  <circle cx="21" cy="14" r="1" fill="rgba(79.2142%,24.3137%,24.3137%,1)"/>
  <circle cx="22" cy="14" r="1" fill="rgba(245,220,220,1)"/>
  <circle cx="23" cy="14" r="1" fill="white"/>
  <circle cx="0" cy="15" r="1" fill="rgba(255,253,253,1)"/>
  <circle cx="1" cy="15" r="1" fill="rgba(207,83,83,1)"/>
  <circle cx="2" cy="15" r="1" fill="rgba(200,55,55,1)"/>
  <circle cx="3" cy="15" r="1" fill="rgba(200,55,55,1)"/>
  <circle cx="4" cy="15" r="1" fill="rgba(200,55,55,1)"/>
  <circle cx="5" cy="15" r="1" fill="rgba(200,55,55,1)"/>
  <circle cx="6" cy="15" r="1" fill="rgba(200,55,55,1)"/>
  <circle cx="7" cy="15" r="1" fill="rgba(200,55,55,1)"/>
  <circle cx="8" cy="15" r="1" fill="rgba(200,55,55,1)"/>
  <circle cx="9" cy="15" r="1" fill="rgba(200,55,55,1)"/>
  <circle cx="10" cy="15" r="1" fill="rgba(200,55,55,1)"/>
  <circle cx="11" cy="15" r="1" fill="rgba(200,55,55,1)"/>
  <circle cx="12" cy="15" r="1" fill="rgba(200,55,55,1)"/>
  <circle cx="13" cy="15" r="1" fill="rgba(200,55,55,1)"/>
  <circle cx="14" cy="15" r="1" fill="rgba(200,55,55,1)"/>
  <circle cx="15" cy="15" r="1" fill="rgba(200,55,55,1)"/>
  <circle cx="16" cy="15" r="1" fill="rgba(200,55,55,1)"/>
  <circle cx="17" cy="15" r="1" fill="rgba(200,55,55,1)"/>
  <circle cx="18" cy="15" r="1" fill="rgba(200,55,55,1)"/>
  <circle cx="19" cy="15" r="1" fill="rgba(200,55,55,1)"/>
  <circle cx="20" cy="15" r="1" fill="rgba(200,55,55,1)"/>
  <circle cx="21" cy="15" r="1" fill="rgba(78.4314%,21.9593%,21.9593%,1)"/>
  <circle cx="22" cy="15" r="1" fill="rgba(82.3514%,35.2941%,35.2941%,1)"/>
  <circle cx="23" cy="15" r="1" fill="rgba(255,254,254,1)"/>
  <circle cx="0" cy="16" r="1" fill="rgba(236,186,186,1)"/>
  <circle cx="1" cy="16" r="1" fill="rgba(79.6078%,25.0965%,25.0965%,1)"/>
  <circle cx="2" cy="16" r="1" fill="rgba(200,55,55,1)"/>
  <circle cx="3" cy="16" r="1" fill="rgba(200,55,55,1)"/>
  <circle cx="4" cy="16" r="1" fill="rgba(200,55,55,1)"/>
  <circle cx="5" cy="16" r="1" fill="rgba(200,55,55,1)"/>
  <circle cx="6" cy="16" r="1" fill="rgba(200,55,55,1)"/>
  <circle cx="7" cy="16" r="1" fill="rgba(200,55,55,1)"/>
  <circle cx="8" cy="16" r="1" fill="rgba(200,55,55,1)"/>
  <circle cx="9" cy="16" r="1" fill="rgba(200,55,55,1)"/>
  <circle cx="10" cy="16" r="1" fill="rgba(200,55,55,1)"/>
  <circle cx="11" cy="16" r="1" fill="rgba(200,55,55,1)"/>
  <circle cx="12" cy="16" r="1" fill="rgba(200,55,55,1)"/>
  <circle cx="13" cy="16" r="1" fill="rgba(200,55,55,1)"/>
  <circle cx="14" cy="16" r="1" fill="rgba(200,55,55,1)"/>
  <circle cx="15" cy="16" r="1" fill="rgba(200,55,55,1)"/>
  <circle cx="16" cy="16" r="1" fill="rgba(200,55,55,1)"/>
  <circle cx="17" cy="16" r="1" fill="rgba(200,55,55,1)"/>
  <circle cx="18" cy="16" r="1" fill="rgba(200,55,55,1)"/>
  <circle cx="19" cy="16" r="1" fill="rgba(200,55,55,1)"/>
  <circle cx="20" cy="16" r="1" fill="rgba(200,55,55,1)"/>
  <circle cx="21" cy="16" r="1" fill="rgba(200,55,55,1)"/>
  <circle cx="22" cy="16" r="1" fill="rgba(79.2142%,25.098%,25.098%,1)"/>
  <circle cx="23" cy="16" r="1" fill="rgba(238,195,195,1)"/>
  <circle cx="0" cy="17" r="1" fill="rgba(82.7451%,36.4691%,36.4691%,1)"/>
  <circle cx="1" cy="17" r="1" fill="rgba(200,55,55,1)"/>
  <circle cx="2" cy="17" r="1" fill="rgba(200,55,55,1)"/>
  <circle cx="3" cy="17" r="1" fill="rgba(200,55,55,1)"/>
  <circle cx="4" cy="17" r="1" fill="rgba(200,55,55,1)"/>
  <circle cx="5" cy="17" r="1" fill="rgba(200,55,55,1)"/>
  <circle cx="6" cy="17" r="1" fill="rgba(200,55,55,1)"/>
  <circle cx="7" cy="17" r="1" fill="rgba(200,55,55,1)"/>
  <circle cx="8" cy="17" r="1" fill="rgba(200,55,55,1)"/>
  <circle cx="9" cy="17" r="1" fill="rgba(200,55,55,1)"/>
  <circle cx="10" cy="17" r="1" fill="rgba(200,55,55,1)"/>
  <circle cx="11" cy="17" r="1" fill="rgba(200,55,55,1)"/>
  <circle cx="12" cy="17" r="1" fill="rgba(200,55,55,1)"/>
  <circle cx="13" cy="17" r="1" fill="rgba(200,55,55,1)"/>
  <circle cx="14" cy="17" r="1" fill="rgba(200,55,55,1)"/>
  <circle cx="15" cy="17" r="1" fill="rgba(200,55,55,1)"/>
  <circle cx="16" cy="17" r="1" fill="rgba(200,55,55,1)"/>
  <circle cx="17" cy="17" r="1" fill="rgba(200,55,55,1)"/>
  <circle cx="18" cy="17" r="1" fill="rgba(200,55,55,1)"/>
  <circle cx="19" cy="17" r="1" fill="rgba(200,55,55,1)"/>
  <circle cx="20" cy="17" r="1" fill="rgba(200,55,55,1)"/>
  <circle cx="21" cy="17" r="1" fill="rgba(200,55,55,1)"/>
  <circle cx="22" cy="17" r="1" fill="rgba(200,55,55,1)"/>
  <circle cx="23" cy="17" r="1" fill="rgba(83.5294%,40.3906%,40.3906%,1)"/>
  <circle cx="0" cy="18" r="1" fill="rgba(79.2142%,23.92%,23.92%,1)"/>
  <circle cx="1" cy="18" r="1" fill="rgba(200,55,55,1)"/>
  <circle cx="2" cy="18" r="1" fill="rgba(200,55,55,1)"/>
  <circle cx="3" cy="18" r="1" fill="rgba(200,55,55,1)"/>
  <circle cx="4" cy="18" r="1" fill="rgba(200,55,55,1)"/>
  <circle cx="5" cy="18" r="1" fill="rgba(200,55,55,1)"/>
  <circle cx="6" cy="18" r="1" fill="rgba(200,55,55,1)"/>
  <circle cx="7" cy="18" r="1" fill="rgba(200,55,55,1)"/>
  <circle cx="8" cy="18" r="1" fill="rgba(200,55,55,1)"/>
  <circle cx="9" cy="18" r="1" fill="rgba(200,55,55,1)"/>
  <circle cx="10" cy="18" r="1" fill="rgba(200,55,55,1)"/>
  <circle cx="11" cy="18" r="1" fill="rgba(200,55,55,1)"/>
  <circle cx="12" cy="18" r="1" fill="rgba(200,55,55,1)"/>
  <circle cx="13" cy="18" r="1" fill="rgba(200,55,55,1)"/>
  <circle cx="14" cy="18" r="1" fill="rgba(200,55,55,1)"/>
  <circle cx="15" cy="18" r="1" fill="rgba(200,55,55,1)"/>
  <circle cx="16" cy="18" r="1" fill="rgba(200,55,55,1)"/>
  <circle cx="17" cy="18" r="1" fill="rgba(200,55,55,1)"/>
  <circle cx="18" cy="18" r="1" fill="rgba(200,55,55,1)"/>
  <circle cx="19" cy="18" r="1" fill="rgba(200,55,55,1)"/>
  <circle cx="20" cy="18" r="1" fill="rgba(200,55,55,1)"/>
  <circle cx="21" cy="18" r="1" fill="rgba(200,55,55,1)"/>
  <circle cx="22" cy="18" r="1" fill="rgba(200,55,55,1)"/>
  <circle cx="23" cy="18" r="1" fill="rgba(79.2142%,23.1373%,23.1373%,1)"/>
  <circle cx="0" cy="19" r="1" fill="rgba(79.6063%,26.2745%,26.2745%,1)"/>
  <circle cx="1" cy="19" r="1" fill="rgba(200,55,55,1)"/>
  <circle cx="2" cy="19" r="1" fill="rgba(200,55,55,1)"/>
  <circle cx="3" cy="19" r="1" fill="rgba(200,55,55,1)"/>
  <circle cx="4" cy="19" r="1" fill="rgba(200,55,55,1)"/>
  <circle cx="5" cy="19" r="1" fill="rgba(200,55,55,1)"/>
  <circle cx="6" cy="19" r="1" fill="rgba(200,55,55,1)"/>
  <circle cx="7" cy="19" r="1" fill="rgba(200,55,55,1)"/>
  <circle cx="8" cy="19" r="1" fill="rgba(200,55,55,1)"/>
  <circle cx="9" cy="19" r="1" fill="rgba(200,55,55,1)"/>
  <circle cx="10" cy="19" r="1" fill="rgba(200,55,55,1)"/>
  <circle cx="11" cy="19" r="1" fill="rgba(200,55,55,1)"/>
  <circle cx="12" cy="19" r="1" fill="rgba(200,55,55,1)"/>
  <circle cx="13" cy="19" r="1" fill="rgba(200,55,55,1)"/>
  <circle cx="14" cy="19" r="1" fill="rgba(200,55,55,1)"/>
  <circle cx="15" cy="19" r="1" fill="rgba(200,55,55,1)"/>
  <circle cx="16" cy="19" r="1" fill="rgba(200,55,55,1)"/>
  <circle cx="17" cy="19" r="1" fill="rgba(200,55,55,1)"/>
  <circle cx="18" cy="19" r="1" fill="rgba(200,55,55,1)"/>
  <circle cx="19" cy="19" r="1" fill="rgba(200,55,55,1)"/>
  <circle cx="20" cy="19" r="1" fill="rgba(200,55,55,1)"/>
  <circle cx="21" cy="19" r="1" fill="rgba(200,55,55,1)"/>
  <circle cx="22" cy="19" r="1" fill="rgba(200,55,55,1)"/>
  <circle cx="23" cy="19" r="1" fill="rgba(79.6063%,26.2745%,26.2745%,1)"/>
  <circle cx="0" cy="20" r="1" fill="rgba(78.822%,22.7451%,22.7451%,1)"/>
  <circle cx="1" cy="20" r="1" fill="rgba(200,55,55,1)"/>
  <circle cx="2" cy="20" r="1" fill="rgba(200,55,55,1)"/>
  <circle cx="3" cy="20" r="1" fill="rgba(200,55,55,1)"/>
  <circle cx="4" cy="20" r="1" fill="rgba(200,55,55,1)"/>
  <circle cx="5" cy="20" r="1" fill="rgba(200,55,55,1)"/>
  <circle cx="6" cy="20" r="1" fill="rgba(200,55,55,1)"/>
  <circle cx="7" cy="20" r="1" fill="rgba(200,55,55,1)"/>
  <circle cx="8" cy="20" r="1" fill="rgba(200,55,55,1)"/>
  <circle cx="9" cy="20" r="1" fill="rgba(200,55,55,1)"/>
  <circle cx="10" cy="20" r="1" fill="rgba(200,55,55,1)"/>
  <circle cx="11" cy="20" r="1" fill="rgba(200,55,55,1)"/>
  <circle cx="12" cy="20" r="1" fill="rgba(200,55,55,1)"/>
  <circle cx="13" cy="20" r="1" fill="rgba(200,55,55,1)"/>
  <circle cx="14" cy="20" r="1" fill="rgba(200,55,55,1)"/>
  <circle cx="15" cy="20" r="1" fill="rgba(200,55,55,1)"/>
  <circle cx="16" cy="20" r="1" fill="rgba(200,55,55,1)"/>
  <circle cx="17" cy="20" r="1" fill="rgba(200,55,55,1)"/>
  <circle cx="18" cy="20" r="1" fill="rgba(200,55,55,1)"/>
  <circle cx="19" cy="20" r="1" fill="rgba(200,55,55,1)"/>
  <circle cx="20" cy="20" r="1" fill="rgba(200,55,55,1)"/>
  <circle cx="21" cy="20" r="1" fill="rgba(200,55,55,1)"/>
  <circle cx="22" cy="20" r="1" fill="rgba(200,55,55,1)"/>
  <circle cx="23" cy="20" r="1" fill="rgba(78.8235%,23.1357%,23.1357%,1)"/>
</svg>
