<?xml version="1.0" standalone="no"?>
<!DOCTYPE svg PUBLIC "-//W3C//DTD SVG 20010904//EN"
  "http://www.w3.org/TR/2001/REC-SVG-20010904/DTD/svg10.dtd">
<svg width="24" height="21">
  <circle cx="0" cy="0" r="1" fill="white"/>
  <circle cx="1" cy="0" r="1" fill="white"/>
  <circle cx="2" cy="0" r="1" fill="white"/>
  <circle cx="3" cy="0" r="1" fill="white"/>
  <circle cx="4" cy="0" r="1" fill="white"/>
  <circle cx="5" cy="0" r="1" fill="white"/>
  <circle cx="6" cy="0" r="1" fill="white"/>
  <circle cx="7" cy="0" r="1" fill="white"/>
  <circle cx="8" cy="0" r="1" fill="rgba(223,243,210,1)"/>
  <circle cx="9" cy="0" r="1" fill="rgba(144,208,102,1)"/>
  <circle cx="10" cy="0" r="1" fill="rgba(53.724%,79.6078%,36.8612%,1)"/>
  <circle cx="11" cy="0" r="1" fill="rgba(137,204,92,1)"/>
  <circle cx="12" cy="0" r="1" fill="rgba(136,204,92,1)"/>
  <circle cx="13" cy="0" r="1" fill="rgba(53.724%,80%,36.8612%,1)"/>
  <circle cx="14" cy="0" r="1" fill="rgba(58.4298%,81.9593%,42.7436%,1)"/>
  <circle cx="15" cy="0" r="1" fill="rgba(234,247,226,1)"/>
  <circle cx="16" cy="0" r="1" fill="white"/>
  <circle cx="17" cy="0" r="1" fill="white"/>
  <circle cx="18" cy="0" r="1" fill="white"/>
  <circle cx="19" cy="0" r="1" fill="white"/>
  <circle cx="20" cy="0" r="1" fill="white"/>
  <circle cx="21" cy="0" r="1" fill="white"/>
  <circle cx="22" cy="0" r="1" fill="white"/>
  <circle cx="23" cy="0" r="1" fill="white"/>
  <circle cx="0" cy="1" r="1" fill="white"/>
  <circle cx="1" cy="1" r="1" fill="white"/>
  <circle cx="2" cy="1" r="1" fill="white"/>
  <circle cx="3" cy="1" r="1" fill="white"/>
  <circle cx="4" cy="1" r="1" fill="white"/>
  <circle cx="5" cy="1" r="1" fill="white"/>
  <circle cx="6" cy="1" r="1" fill="white"/>
  <circle cx="7" cy="1" r="1" fill="rgba(223,243,210,1)"/>
  <circle cx="8" cy="1" r="1" fill="rgba(54.5083%,81.1765%,37.2534%,1)"/>
  <circle cx="9" cy="1" r="1" fill="rgba(141,211,95,1)"/>
  <circle cx="10" cy="1" r="1" fill="rgba(141,211,95,1)"/>
  <circle cx="11" cy="1" r="1" fill="rgba(141,211,95,1)"/>
  <circle cx="12" cy="1" r="1" fill="rgba(141,211,95,1)"/>
  <circle cx="13" cy="1" r="1" fill="rgba(141,211,95,1)"/>
  <circle cx="14" cy="1" r="1" fill="rgba(140,210,94,1)"/>
  <circle cx="15" cy="1" r="1" fill="rgba(142,208,98,1)"/>
  <circle cx="16" cy="1" r="1" fill="rgba(237,248,230,1)"/>
  <circle cx="17" cy="1" r="1" fill="white"/>
  <circle cx="18" cy="1" r="1" fill="white"/>
  <circle cx="19" cy="1" r="1" fill="white"/>
  <circle cx="20" cy="1" r="1" fill="white"/>
  <circle cx="21" cy="1" r="1" fill="white"/>
  <circle cx="22" cy="1" r="1" fill="white"/>
  <circle cx="23" cy="1" r="1" fill="white"/>
  <circle cx="0" cy="2" r="1" fill="white"/>
  <circle cx="1" cy="2" r="1" fill="white"/>
  <circle cx="2" cy="2" r="1" fill="white"/>
  <circle cx="3" cy="2" r="1" fill="white"/>
  <circle cx="4" cy="2" r="1" fill="white"/>
  <circle cx="5" cy="2" r="1" fill="white"/>
  <circle cx="6" cy="2" r="1" fill="rgba(251,253,249,1)"/>
  <circle cx="7" cy="2" r="1" fill="rgba(143,208,100,1)"/>
  <circle cx="8" cy="2" r="1" fill="rgba(141,211,95,1)"/>
  <circle cx="9" cy="2" r="1" fill="rgba(141,211,95,1)"/>
  <circle cx="10" cy="2" r="1" fill="rgba(141,211,95,1)"/>
  <circle cx="11" cy="2" r="1" fill="rgba(141,211,95,1)"/>
  <circle cx="12" cy="2" r="1" fill="rgba(141,211,95,1)"/>
  <circle cx="13" cy="2" r="1" fill="rgba(141,211,95,1)"/>
  <circle cx="14" cy="2" r="1" fill="rgba(141,211,95,1)"/>
  <circle cx="15" cy="2" r="1" fill="rgba(140,209,94,1)"/>
  <circle cx="16" cy="2" r="1" fill="rgba(59.2157%,81.9593%,44.7059%,1)"/>
  <circle cx="17" cy="2" r="1" fill="white"/>
  <circle cx="18" cy="2" r="1" fill="white"/>
  <circle cx="19" cy="2" r="1" fill="white"/>
  <circle cx="20" cy="2" r="1" fill="white"/>
  <circle cx="21" cy="2" r="1" fill="white"/>
  <circle cx="22" cy="2" r="1" fill="white"/>
  <circle cx="23" cy="2" r="1" fill="white"/>
  <circle cx="0" cy="3" r="1" fill="white"/>
  <circle cx="1" cy="3" r="1" fill="white"/>
  <circle cx="2" cy="3" r="1" fill="white"/>
  <circle cx="3" cy="3" r="1" fill="white"/>
  <circle cx="4" cy="3" r="1" fill="white"/>
  <circle cx="5" cy="3" r="1" fill="white"/>
  <circle cx="6" cy="3" r="1" fill="rgba(217,240,201,1)"/>
  <circle cx="7" cy="3" r="1" fill="rgba(53.3333%,79.2157%,36.0769%,1)"/>
  <circle cx="8" cy="3" r="1" fill="rgba(141,211,95,1)"/>
  <circle cx="9" cy="3" r="1" fill="rgba(141,211,95,1)"/>
  <circle cx="10" cy="3" r="1" fill="rgba(141,211,95,1)"/>
  <circle cx="11" cy="3" r="1" fill="rgba(141,211,95,1)"/>
  <circle cx="12" cy="3" r="1" fill="rgba(141,211,95,1)"/>
  <circle cx="13" cy="3" r="1" fill="rgba(141,211,95,1)"/>
  <circle cx="14" cy="3" r="1" fill="rgba(141,211,95,1)"/>
  <circle cx="15" cy="3" r="1" fill="rgba(141,211,95,1)"/>
  <circle cx="16" cy="3" r="1" fill="rgba(54.5083%,80.7843%,37.2534%,1)"/>
  <circle cx="17" cy="3" r="1" fill="rgba(234,247,226,1)"/>
  <circle cx="18" cy="3" r="1" fill="white"/>
  <circle cx="19" cy="3" r="1" fill="white"/>
  <circle cx="20" cy="3" r="1" fill="white"/>
  <circle cx="21" cy="3" r="1" fill="white"/>
  <circle cx="22" cy="3" r="1" fill="white"/>
  <circle cx="23" cy="3" r="1" fill="white"/>
  <circle cx="0" cy="4" r="1" fill="white"/>
  <circle cx="1" cy="4" r="1" fill="white"/>
  <circle cx="2" cy="4" r="1" fill="white"/>
  <circle cx="3" cy="4" r="1" fill="white"/>
  <circle cx="4" cy="4" r="1" fill="white"/>
  <circle cx="5" cy="4" r="1" fill="white"/>
  <circle cx="6" cy="4" r="1" fill="rgba(190,228,164,1)"/>
  <circle cx="7" cy="4" r="1" fill="rgba(140,211,95,1)"/>
  <circle cx="8" cy="4" r="1" fill="rgba(141,211,95,1)"/>
  <circle cx="9" cy="4" r="1" fill="rgba(141,211,95,1)"/>
  <circle cx="10" cy="4" r="1" fill="rgba(141,211,95,1)"/>
  <circle cx="11" cy="4" r="1" fill="rgba(141,211,95,1)"/>
  <circle cx="12" cy="4" r="1" fill="rgba(141,211,95,1)"/>
  <circle cx="13" cy="4" r="1" fill="rgba(141,211,95,1)"/>
  <circle cx="14" cy="4" r="1" fill="rgba(141,211,95,1)"/>
  <circle cx="15" cy="4" r="1" fill="rgba(141,211,95,1)"/>
  <circle cx="16" cy="4" r="1" fill="rgba(53.7255%,80%,36.4691%,1)"/>
  <circle cx="17" cy="4" r="1" fill="rgba(211,238,193,1)"/>
  <circle cx="18" cy="4" r="1" fill="white"/>
  <circle cx="19" cy="4" r="1" fill="white"/>
  <circle cx="20" cy="4" r="1" fill="white"/>
  <circle cx="21" cy="4" r="1" fill="white"/>
  <circle cx="22" cy="4" r="1" fill="white"/>
  <circle cx="23" cy="4" r="1" fill="white"/>
  <circle cx="0" cy="5" r="1" fill="white"/>
  <circle cx="1" cy="5" r="1" fill="white"/>
  <circle cx="2" cy="5" r="1" fill="white"/>
  <circle cx="3" cy="5" r="1" fill="white"/>
  <circle cx="4" cy="5" r="1" fill="white"/>
  <circle cx="5" cy="5" r="1" fill="white"/>
  <circle cx="6" cy="5" r="1" fill="rgba(72.549%,88.6259%,62.3529%,1)"/>
  <circle cx="7" cy="5" r="1" fill="rgba(141,211,95,1)"/>
  <circle cx="8" cy="5" r="1" fill="rgba(141,211,95,1)"/>
  <circle cx="9" cy="5" r="1" fill="rgba(141,211,95,1)"/>
  <circle cx="10" cy="5" r="1" fill="rgba(141,211,95,1)"/>
  <circle cx="11" cy="5" r="1" fill="rgba(141,211,95,1)"/>
  <circle cx="12" cy="5" r="1" fill="rgba(141,211,95,1)"/>
  <circle cx="13" cy="5" r="1" fill="rgba(141,211,95,1)"/>
  <circle cx="14" cy="5" r="1" fill="rgba(141,211,95,1)"/>
  <circle cx="15" cy="5" r="1" fill="rgba(141,211,95,1)"/>
  <circle cx="16" cy="5" r="1" fill="rgba(53.724%,80.3922%,36.4706%,1)"/>
  <circle cx="17" cy="5" r="1" fill="rgba(209,237,190,1)"/>
  <circle cx="18" cy="5" r="1" fill="white"/>
  <circle cx="19" cy="5" r="1" fill="white"/>
  <circle cx="20" cy="5" r="1" fill="white"/>
  <circle cx="21" cy="5" r="1" fill="white"/>
  <circle cx="22" cy="5" r="1" fill="white"/>
  <circle cx="23" cy="5" r="1" fill="white"/>
  <circle cx="0" cy="6" r="1" fill="white"/>
  <circle cx="1" cy="6" r="1" fill="white"/>
  <circle cx="2" cy="6" r="1" fill="white"/>
  <circle cx="3" cy="6" r="1" fill="white"/>
  <circle cx="4" cy="6" r="1" fill="white"/>
  <circle cx="5" cy="6" r="1" fill="white"/>
  <circle cx="6" cy="6" r="1" fill="rgba(209,237,191,1)"/>
  <circle cx="7" cy="6" r="1" fill="rgba(53.3318%,79.6078%,36.0784%,1)"/>
  <circle cx="8" cy="6" r="1" fill="rgba(141,211,95,1)"/>
  <circle cx="9" cy="6" r="1" fill="rgba(141,211,95,1)"/>
  <circle cx="10" cy="6" r="1" fill="rgba(141,211,95,1)"/>
  <circle cx="11" cy="6" r="1" fill="rgba(141,211,95,1)"/>
  <circle cx="12" cy="6" r="1" fill="rgba(141,211,95,1)"/>
  <circle cx="13" cy="6" r="1" fill="rgba(141,211,95,1)"/>
  <circle cx="14" cy="6" r="1" fill="rgba(141,211,95,1)"/>
  <circle cx="15" cy="6" r="1" fill="rgba(141,211,95,1)"/>
  <circle cx="16" cy="6" r="1" fill="rgba(53.724%,79.6078%,36.8612%,1)"/>
  <circle cx="17" cy="6" r="1" fill="rgba(227,244,215,1)"/>
  <circle cx="18" cy="6" r="1" fill="white"/>
  <circle cx="19" cy="6" r="1" fill="white"/>
  <circle cx="20" cy="6" r="1" fill="white"/>
  <circle cx="21" cy="6" r="1" fill="white"/>
  <circle cx="22" cy="6" r="1" fill="white"/>
  <circle cx="23" cy="6" r="1" fill="white"/>
  <circle cx="0" cy="7" r="1" fill="white"/>
  <circle cx="1" cy="7" r="1" fill="white"/>
  <circle cx="2" cy="7" r="1" fill="white"/>
  <circle cx="3" cy="7" r="1" fill="white"/>
  <circle cx="4" cy="7" r="1" fill="white"/>
  <circle cx="5" cy="7" r="1" fill="white"/>
  <circle cx="6" cy="7" r="1" fill="rgba(245,251,241,1)"/>
  <circle cx="7" cy="7" r="1" fill="rgba(54.9004%,81.5686%,37.6455%,1)"/>
  <circle cx="8" cy="7" r="1" fill="rgba(141,211,95,1)"/>
  <circle cx="9" cy="7" r="1" fill="rgba(141,211,95,1)"/>
  <circle cx="10" cy="7" r="1" fill="rgba(141,211,95,1)"/>
  <circle cx="11" cy="7" r="1" fill="rgba(141,211,95,1)"/>
  <circle cx="12" cy="7" r="1" fill="rgba(141,211,95,1)"/>
  <circle cx="13" cy="7" r="1" fill="rgba(141,211,95,1)"/>
  <circle cx="14" cy="7" r="1" fill="rgba(141,211,95,1)"/>
  <circle cx="15" cy="7" r="1" fill="rgba(141,211,95,1)"/>
  <circle cx="16" cy="7" r="1" fill="rgba(56.0769%,81.5686%,39.9985%,1)"/>
  <circle cx="17" cy="7" r="1" fill="rgba(253,254,252,1)"/>
  <circle cx="18" cy="7" r="1" fill="white"/>
  <circle cx="19" cy="7" r="1" fill="white"/>
  <circle cx="20" cy="7" r="1" fill="white"/>
  <circle cx="21" cy="7" r="1" fill="white"/>
  <circle cx="22" cy="7" r="1" fill="white"/>
  <circle cx="23" cy="7" r="1" fill="white"/>
  <circle cx="0" cy="8" r="1" fill="white"/>
  <circle cx="1" cy="8" r="1" fill="white"/>
  <circle cx="2" cy="8" r="1" fill="white"/>
  <circle cx="3" cy="8" r="1" fill="white"/>
  <circle cx="4" cy="8" r="1" fill="white"/>
  <circle cx="5" cy="8" r="1" fill="white"/>
  <circle cx="6" cy="8" r="1" fill="white"/>
  <circle cx="7" cy="8" r="1" fill="rgba(196,230,175,1)"/>
  <circle cx="8" cy="8" r="1" fill="rgba(53.7255%,80%,36.4691%,1)"/>
  <circle cx="9" cy="8" r="1" fill="rgba(141,211,95,1)"/>
  <circle cx="10" cy="8" r="1" fill="rgba(141,211,95,1)"/>
  <circle cx="11" cy="8" r="1" fill="rgba(141,211,95,1)"/>
  <circle cx="12" cy="8" r="1" fill="rgba(141,211,95,1)"/>
  <circle cx="13" cy="8" r="1" fill="rgba(141,211,95,1)"/>
  <circle cx="14" cy="8" r="1" fill="rgba(141,211,95,1)"/>
  <circle cx="15" cy="8" r="1" fill="rgba(54.5083%,80.7843%,37.2534%,1)"/>
  <circle cx="16" cy="8" r="1" fill="rgba(221,242,207,1)"/>
  <circle cx="17" cy="8" r="1" fill="white"/>
  <circle cx="18" cy="8" r="1" fill="white"/>
  <circle cx="19" cy="8" r="1" fill="white"/>
  <circle cx="20" cy="8" r="1" fill="white"/>
  <circle cx="21" cy="8" r="1" fill="white"/>
  <circle cx="22" cy="8" r="1" fill="white"/>
  <circle cx="23" cy="8" r="1" fill="white"/>
  <circle cx="0" cy="9" r="1" fill="white"/>
  <circle cx="1" cy="9" r="1" fill="white"/>
  <circle cx="2" cy="9" r="1" fill="white"/>
  <circle cx="3" cy="9" r="1" fill="white"/>
  <circle cx="4" cy="9" r="1" fill="white"/>
  <circle cx="5" cy="9" r="1" fill="white"/>
  <circle cx="6" cy="9" r="1" fill="white"/>
  <circle cx="7" cy="9" r="1" fill="white"/>
  <circle cx="8" cy="9" r="1" fill="rgba(74.1161%,89.0181%,64.7059%,1)"/>
  <circle cx="9" cy="9" r="1" fill="rgba(54.902%,81.5686%,37.6455%,1)"/>
  <circle cx="10" cy="9" r="1" fill="rgba(138,207,93,1)"/>
  <circle cx="11" cy="9" r="1" fill="rgba(141,211,95,1)"/>
  <circle cx="12" cy="9" r="1" fill="rgba(141,211,95,1)"/>
  <circle cx="13" cy="9" r="1" fill="rgba(137,204,92,1)"/>
  <circle cx="14" cy="9" r="1" fill="rgba(54.902%,81.5686%,37.6455%,1)"/>
  <circle cx="15" cy="9" r="1" fill="rgba(210,236,194,1)"/>
  <circle cx="16" cy="9" r="1" fill="white"/>
  <circle cx="17" cy="9" r="1" fill="white"/>
  <circle cx="18" cy="9" r="1" fill="white"/>
  <circle cx="19" cy="9" r="1" fill="white"/>
  <circle cx="20" cy="9" r="1" fill="white"/>
  <circle cx="21" cy="9" r="1" fill="white"/>
  <circle cx="22" cy="9" r="1" fill="white"/>
  <circle cx="23" cy="9" r="1" fill="white"/>
  <circle cx="0" cy="10" r="1" fill="white"/>
  <circle cx="1" cy="10" r="1" fill="white"/>
  <circle cx="2" cy="10" r="1" fill="white"/>
  <circle cx="3" cy="10" r="1" fill="white"/>
  <circle cx="4" cy="10" r="1" fill="white"/>
  <circle cx="5" cy="10" r="1" fill="white"/>
  <circle cx="6" cy="10" r="1" fill="white"/>
  <circle cx="7" cy="10" r="1" fill="white"/>
  <circle cx="8" cy="10" r="1" fill="white"/>
  <circle cx="9" cy="10" r="1" fill="rgba(236,248,228,1)"/>
  <circle cx="10" cy="10" r="1" fill="rgba(74.1176%,89.4118%,64.3122%,1)"/>
  <circle cx="11" cy="10" r="1" fill="rgba(62.7451%,82.7436%,49.4102%,1)"/>
  <circle cx="12" cy="10" r="1" fill="rgba(63.1357%,83.1357%,50.1961%,1)"/>
  <circle cx="13" cy="10" r="1" fill="rgba(198,232,176,1)"/>
  <circle cx="14" cy="10" r="1" fill="rgba(242,250,237,1)"/>
  <circle cx="15" cy="10" r="1" fill="white"/>
  <circle cx="16" cy="10" r="1" fill="white"/>
  <circle cx="17" cy="10" r="1" fill="white"/>
  <circle cx="18" cy="10" r="1" fill="white"/>
  <circle cx="19" cy="10" r="1" fill="white"/>
  <circle cx="20" cy="10" r="1" fill="white"/>
  <circle cx="21" cy="10" r="1" fill="white"/>
  <circle cx="22" cy="10" r="1" fill="white"/>
  <circle cx="23" cy="10" r="1" fill="white"/>
  <circle cx="0" cy="11" r="1" fill="white"/>
  <circle cx="1" cy="11" r="1" fill="white"/>
  <circle cx="2" cy="11" r="1" fill="white"/>
  <circle cx="3" cy="11" r="1" fill="white"/>
  <circle cx="4" cy="11" r="1" fill="rgba(232,246,223,1)"/>
  <circle cx="5" cy="11" r="1" fill="rgba(70.1946%,88.6275%,58.4298%,1)"/>
  <circle cx="6" cy="11" r="1" fill="rgba(61.1749%,85.0965%,45.0965%,1)"/>
  <circle cx="7" cy="11" r="1" fill="rgba(59.2157%,84.3122%,42.7451%,1)"/>
  <circle cx="8" cy="11" r="1" fill="rgba(59.2157%,84.3122%,42.7451%,1)"/>
  <circle cx="9" cy="11" r="1" fill="rgba(59.2157%,84.3122%,42.7451%,1)"/>
  <circle cx="10" cy="11" r="1" fill="rgba(59.2157%,84.3122%,42.7451%,1)"/>
  <circle cx="11" cy="11" r="1" fill="rgba(59.2157%,84.3122%,42.7451%,1)"/>
  <circle cx="12" cy="11" r="1" fill="rgba(59.2157%,84.3122%,42.7451%,1)"/>
  <circle cx="13" cy="11" r="1" fill="rgba(59.2157%,84.3122%,42.7451%,1)"/>
  <circle cx="14" cy="11" r="1" fill="rgba(59.2157%,84.3122%,42.7451%,1)"/>
  <circle cx="15" cy="11" r="1" fill="rgba(59.2157%,84.3122%,42.7451%,1)"/>
  <circle cx="16" cy="11" r="1" fill="rgba(59.2157%,84.3122%,42.7451%,1)"/>
  <circle cx="17" cy="11" r="1" fill="rgba(62.3514%,85.098%,47.0588%,1)"/>
  <circle cx="18" cy="11" r="1" fill="rgba(185,228,158,1)"/>
  <circle cx="19" cy="11" r="1" fill="rgba(239,249,232,1)"/>
  <circle cx="20" cy="11" r="1" fill="white"/>
  <circle cx="21" cy="11" r="1" fill="white"/>
  <circle cx="22" cy="11" r="1" fill="white"/>
  <circle cx="23" cy="11" r="1" fill="white"/>
  <circle cx="0" cy="12" r="1" fill="white"/>
  <circle cx="1" cy="12" r="1" fill="white"/>
  <circle cx="2" cy="12" r="1" fill="white"/>
  <circle cx="3" cy="12" r="1" fill="rgba(195,232,170,1)"/>
  <circle cx="4" cy="12" r="1" fill="rgba(146,213,102,1)"/>
  <circle cx="5" cy="12" r="1" fill="rgba(55.2926%,82.7451%,37.2549%,1)"/>
  <circle cx="6" cy="12" r="1" fill="rgba(141,211,95,1)"/>
  <circle cx="7" cy="12" r="1" fill="rgba(141,211,95,1)"/>
  <circle cx="8" cy="12" r="1" fill="rgba(141,211,95,1)"/>
  <circle cx="9" cy="12" r="1" fill="rgba(141,211,95,1)"/>
  <circle cx="10" cy="12" r="1" fill="rgba(141,211,95,1)"/>
  <circle cx="11" cy="12" r="1" fill="rgba(141,211,95,1)"/>
  <circle cx="12" cy="12" r="1" fill="rgba(141,211,95,1)"/>
  <circle cx="13" cy="12" r="1" fill="rgba(141,211,95,1)"/>
  <circle cx="14" cy="12" r="1" fill="rgba(141,211,95,1)"/>
  <circle cx="15" cy="12" r="1" fill="rgba(141,211,95,1)"/>
  <circle cx="16" cy="12" r="1" fill="rgba(141,211,95,1)"/>
  <circle cx="17" cy="12" r="1" fill="rgba(141,211,95,1)"/>
  <circle cx="18" cy="12" r="1" fill="rgba(56.0784%,83.1357%,38.4314%,1)"/>
  <circle cx="19" cy="12" r="1" fill="rgba(57.2534%,83.1357%,40%,1)"/>
  <circle cx="20" cy="12" r="1" fill="rgba(207,237,188,1)"/>
  <circle cx="21" cy="12" r="1" fill="white"/>
  <circle cx="22" cy="12" r="1" fill="white"/>
  <circle cx="23" cy="12" r="1" fill="white"/>
  <circle cx="0" cy="13" r="1" fill="white"/>
  <circle cx="1" cy="13" r="1" fill="white"/>
  <circle cx="2" cy="13" r="1" fill="rgba(199,233,176,1)"/>
  <circle cx="3" cy="13" r="1" fill="rgba(57.6471%,83.5279%,40.3906%,1)"/>
  <circle cx="4" cy="13" r="1" fill="rgba(141,211,95,1)"/>
  <circle cx="5" cy="13" r="1" fill="rgba(141,211,95,1)"/>
  <circle cx="6" cy="13" r="1" fill="rgba(141,211,95,1)"/>
  <circle cx="7" cy="13" r="1" fill="rgba(141,211,95,1)"/>
  <circle cx="8" cy="13" r="1" fill="rgba(141,211,95,1)"/>
  <circle cx="9" cy="13" r="1" fill="rgba(141,211,95,1)"/>
  <circle cx="10" cy="13" r="1" fill="rgba(141,211,95,1)"/>
  <circle cx="11" cy="13" r="1" fill="rgba(141,211,95,1)"/>
  <circle cx="12" cy="13" r="1" fill="rgba(141,211,95,1)"/>
  <circle cx="13" cy="13" r="1" fill="rgba(141,211,95,1)"/>
  <circle cx="14" cy="13" r="1" fill="rgba(141,211,95,1)"/>
  <circle cx="15" cy="13" r="1" fill="rgba(141,211,95,1)"/>
  <circle cx="16" cy="13" r="1" fill="rgba(141,211,95,1)"/>
  <circle cx="17" cy="13" r="1" fill="rgba(141,211,95,1)"/>
  <circle cx="18" cy="13" r="1" fill="rgba(141,211,95,1)"/>
  <circle cx="19" cy="13" r="1" fill="rgba(141,211,95,1)"/>
  <circle cx="20" cy="13" r="1" fill="rgba(57.2534%,83.5294%,40%,1)"/>
  <circle cx="21" cy="13" r="1" fill="rgba(208,238,190,1)"/>
  <circle cx="22" cy="13" r="1" fill="white"/>
  <circle cx="23" cy="13" r="1" fill="white"/>
  <circle cx="0" cy="14" r="1" fill="white"/>
  <circle cx="1" cy="14" r="1" fill="rgba(228,245,217,1)"/>
  <circle cx="2" cy="14" r="1" fill="rgba(56.8627%,83.1373%,39.2142%,1)"/>
  <circle cx="3" cy="14" r="1" fill="rgba(141,211,95,1)"/>
  <circle cx="4" cy="14" r="1" fill="rgba(141,211,95,1)"/>
  <circle cx="5" cy="14" r="1" fill="rgba(141,211,95,1)"/>
  <circle cx="6" cy="14" r="1" fill="rgba(141,211,95,1)"/>
  <circle cx="7" cy="14" r="1" fill="rgba(141,211,95,1)"/>
  <circle cx="8" cy="14" r="1" fill="rgba(141,211,95,1)"/>
  <circle cx="9" cy="14" r="1" fill="rgba(141,211,95,1)"/>
  <circle cx="10" cy="14" r="1" fill="rgba(141,211,95,1)"/>
  <circle cx="11" cy="14" r="1" fill="rgba(141,211,95,1)"/>
  <circle cx="12" cy="14" r="1" fill="rgba(141,211,95,1)"/>
  <circle cx="13" cy="14" r="1" fill="rgba(141,211,95,1)"/>
  <circle cx="14" cy="14" r="1" fill="rgba(141,211,95,1)"/>
  <circle cx="15" cy="14" r="1" fill="rgba(141,211,95,1)"/>
  <circle cx="16" cy="14" r="1" fill="rgba(141,211,95,1)"/>
  <circle cx="17" cy="14" r="1" fill="rgba(141,211,95,1)"/>
  <circle cx="18" cy="14" r="1" fill="rgba(141,211,95,1)"/>
  <circle cx="19" cy="14" r="1" fill="rgba(141,211,95,1)"/>
  <circle cx="20" cy="14" r="1" fill="rgba(141,211,95,1)"/>
  <circle cx="21" cy="14" r="1" fill="rgba(56.8612%,83.5294%,39.6078%,1)"/>
  <circle cx="22" cy="14" r="1" fill="rgba(235,247,227,1)"/>
  <circle cx="23" cy="14" r="1" fill="white"/>
  <circle cx="0" cy="15" r="1" fill="rgba(254,255,254,1)"/>
  <circle cx="1" cy="15" r="1" fill="rgba(61.1765%,85.098%,45.8808%,1)"/>
  <circle cx="2" cy="15" r="1" fill="rgba(141,211,95,1)"/>
  <circle cx="3" cy="15" r="1" fill="rgba(141,211,95,1)"/>
  <circle cx="4" cy="15" r="1" fill="rgba(141,211,95,1)"/>
  <circle cx="5" cy="15" r="1" fill="rgba(141,211,95,1)"/>
  <circle cx="6" cy="15" r="1" fill="rgba(141,211,95,1)"/>
  <circle cx="7" cy="15" r="1" fill="rgba(141,211,95,1)"/>
  <circle cx="8" cy="15" r="1" fill="rgba(141,211,95,1)"/>
  <circle cx="9" cy="15" r="1" fill="rgba(141,211,95,1)"/>
  <circle cx="10" cy="15" r="1" fill="rgba(141,211,95,1)"/>
  <circle cx="11" cy="15" r="1" fill="rgba(141,211,95,1)"/>
  <circle cx="12" cy="15" r="1" fill="rgba(141,211,95,1)"/>
  <circle cx="13" cy="15" r="1" fill="rgba(141,211,95,1)"/>
  <circle cx="14" cy="15" r="1" fill="rgba(141,211,95,1)"/>
  <circle cx="15" cy="15" r="1" fill="rgba(141,211,95,1)"/>
  <circle cx="16" cy="15" r="1" fill="rgba(141,211,95,1)"/>
  <circle cx="17" cy="15" r="1" fill="rgba(141,211,95,1)"/>
  <circle cx="18" cy="15" r="1" fill="rgba(141,211,95,1)"/>
  <circle cx="19" cy="15" r="1" fill="rgba(141,211,95,1)"/>
  <circle cx="20" cy="15" r="1" fill="rgba(141,211,95,1)"/>
  <circle cx="21" cy="15" r="1" fill="rgba(55.2926%,83.1373%,37.6471%,1)"/>
  <circle cx="22" cy="15" r="1" fill="rgba(161,218,123,1)"/>
  <circle cx="23" cy="15" r="1" fill="rgba(255,255,254,1)"/>
  <circle cx="0" cy="16" r="1" fill="rgba(216,240,200,1)"/>
  <circle cx="1" cy="16" r="1" fill="rgba(57.2534%,83.5279%,40.3906%,1)"/>
  <circle cx="2" cy="16" r="1" fill="rgba(141,211,95,1)"/>
  <circle cx="3" cy="16" r="1" fill="rgba(141,211,95,1)"/>
  <circle cx="4" cy="16" r="1" fill="rgba(141,211,95,1)"/>
  <circle cx="5" cy="16" r="1" fill="rgba(141,211,95,1)"/>
  <circle cx="6" cy="16" r="1" fill="rgba(141,211,95,1)"/>
  <circle cx="7" cy="16" r="1" fill="rgba(141,211,95,1)"/>
  <circle cx="8" cy="16" r="1" fill="rgba(141,211,95,1)"/>
  <circle cx="9" cy="16" r="1" fill="rgba(141,211,95,1)"/>
  <circle cx="10" cy="16" r="1" fill="rgba(141,211,95,1)"/>
  <circle cx="11" cy="16" r="1" fill="rgba(141,211,95,1)"/>
  <circle cx="12" cy="16" r="1" fill="rgba(141,211,95,1)"/>
  <circle cx="13" cy="16" r="1" fill="rgba(141,211,95,1)"/>
  <circle cx="14" cy="16" r="1" fill="rgba(141,211,95,1)"/>
  <circle cx="15" cy="16" r="1" fill="rgba(141,211,95,1)"/>
  <circle cx="16" cy="16" r="1" fill="rgba(141,211,95,1)"/>
  <circle cx="17" cy="16" r="1" fill="rgba(141,211,95,1)"/>
  <circle cx="18" cy="16" r="1" fill="rgba(141,211,95,1)"/>
  <circle cx="19" cy="16" r="1" fill="rgba(141,211,95,1)"/>
  <circle cx="20" cy="16" r="1" fill="rgba(141,211,95,1)"/>
  <circle cx="21" cy="16" r="1" fill="rgba(141,211,95,1)"/>
  <circle cx="22" cy="16" r="1" fill="rgba(146,213,102,1)"/>
  <circle cx="23" cy="16" r="1" fill="rgba(221,242,207,1)"/>
  <circle cx="0" cy="17" r="1" fill="rgba(63.92%,86.2745%,49.4118%,1)"/>
  <circle cx="1" cy="17" r="1" fill="rgba(141,211,95,1)"/>
  <circle cx="2" cy="17" r="1" fill="rgba(141,211,95,1)"/>
  <circle cx="3" cy="17" r="1" fill="rgba(141,211,95,1)"/>
  <circle cx="4" cy="17" r="1" fill="rgba(141,211,95,1)"/>
  <circle cx="5" cy="17" r="1" fill="rgba(141,211,95,1)"/>
  <circle cx="6" cy="17" r="1" fill="rgba(141,211,95,1)"/>
  <circle cx="7" cy="17" r="1" fill="rgba(141,211,95,1)"/>
  <circle cx="8" cy="17" r="1" fill="rgba(141,211,95,1)"/>
  <circle cx="9" cy="17" r="1" fill="rgba(141,211,95,1)"/>
  <circle cx="10" cy="17" r="1" fill="rgba(141,211,95,1)"/>
  <circle cx="11" cy="17" r="1" fill="rgba(141,211,95,1)"/>
  <circle cx="12" cy="17" r="1" fill="rgba(141,211,95,1)"/>
  <circle cx="13" cy="17" r="1" fill="rgba(141,211,95,1)"/>
  <circle cx="14" cy="17" r="1" fill="rgba(141,211,95,1)"/>
  <circle cx="15" cy="17" r="1" fill="rgba(141,211,95,1)"/>
  <circle cx="16" cy="17" r="1" fill="rgba(141,211,95,1)"/>
  <circle cx="17" cy="17" r="1" fill="rgba(141,211,95,1)"/>
  <circle cx="18" cy="17" r="1" fill="rgba(141,211,95,1)"/>
  <circle cx="19" cy="17" r="1" fill="rgba(141,211,95,1)"/>
  <circle cx="20" cy="17" r="1" fill="rgba(141,211,95,1)"/>
  <circle cx="21" cy="17" r="1" fill="rgba(141,211,95,1)"/>
  <circle cx="22" cy="17" r="1" fill="rgba(141,211,95,1)"/>
  <circle cx="23" cy="17" r="1" fill="rgba(169,221,133,1)"/>
  <circle cx="0" cy="18" r="1" fill="rgba(145,213,99,1)"/>
  <circle cx="1" cy="18" r="1" fill="rgba(141,211,95,1)"/>
  <circle cx="2" cy="18" r="1" fill="rgba(141,211,95,1)"/>
  <circle cx="3" cy="18" r="1" fill="rgba(141,211,95,1)"/>
  <circle cx="4" cy="18" r="1" fill="rgba(141,211,95,1)"/>
  <circle cx="5" cy="18" r="1" fill="rgba(141,211,95,1)"/>
  <circle cx="6" cy="18" r="1" fill="rgba(141,211,95,1)"/>
  <circle cx="7" cy="18" r="1" fill="rgba(141,211,95,1)"/>
  <circle cx="8" cy="18" r="1" fill="rgba(141,211,95,1)"/>
  <circle cx="9" cy="18" r="1" fill="rgba(141,211,95,1)"/>
  <circle cx="10" cy="18" r="1" fill="rgba(141,211,95,1)"/>
  <circle cx="11" cy="18" r="1" fill="rgba(141,211,95,1)"/>
  <circle cx="12" cy="18" r="1" fill="rgba(141,211,95,1)"/>
  <circle cx="13" cy="18" r="1" fill="rgba(141,211,95,1)"/>
  <circle cx="14" cy="18" r="1" fill="rgba(141,211,95,1)"/>
  <circle cx="15" cy="18" r="1" fill="rgba(141,211,95,1)"/>
  <circle cx="16" cy="18" r="1" fill="rgba(141,211,95,1)"/>
  <circle cx="17" cy="18" r="1" fill="rgba(141,211,95,1)"/>
  <circle cx="18" cy="18" r="1" fill="rgba(141,211,95,1)"/>
  <circle cx="19" cy="18" r="1" fill="rgba(141,211,95,1)"/>
  <circle cx="20" cy="18" r="1" fill="rgba(141,211,95,1)"/>
  <circle cx="21" cy="18" r="1" fill="rgba(141,211,95,1)"/>
  <circle cx="22" cy="18" r="1" fill="rgba(141,211,95,1)"/>
  <circle cx="23" cy="18" r="1" fill="rgba(56.0784%,83.1357%,38.822%,1)"/>
  <circle cx="0" cy="19" r="1" fill="rgba(58.0392%,83.9216%,40.7828%,1)"/>
  <circle cx="1" cy="19" r="1" fill="rgba(141,211,95,1)"/>
  <circle cx="2" cy="19" r="1" fill="rgba(141,211,95,1)"/>
  <circle cx="3" cy="19" r="1" fill="rgba(141,211,95,1)"/>
  <circle cx="4" cy="19" r="1" fill="rgba(141,211,95,1)"/>
  <circle cx="5" cy="19" r="1" fill="rgba(141,211,95,1)"/>
  <circle cx="6" cy="19" r="1" fill="rgba(141,211,95,1)"/>
  <circle cx="7" cy="19" r="1" fill="rgba(141,211,95,1)"/>
  <circle cx="8" cy="19" r="1" fill="rgba(141,211,95,1)"/>
  <circle cx="9" cy="19" r="1" fill="rgba(141,211,95,1)"/>
  <circle cx="10" cy="19" r="1" fill="rgba(141,211,95,1)"/>
  <circle cx="11" cy="19" r="1" fill="rgba(141,211,95,1)"/>
  <circle cx="12" cy="19" r="1" fill="rgba(141,211,95,1)"/>
  <circle cx="13" cy="19" r="1" fill="rgba(141,211,95,1)"/>
  <circle cx="14" cy="19" r="1" fill="rgba(141,211,95,1)"/>
  <circle cx="15" cy="19" r="1" fill="rgba(141,211,95,1)"/>
  <circle cx="16" cy="19" r="1" fill="rgba(141,211,95,1)"/>
  <circle cx="17" cy="19" r="1" fill="rgba(141,211,95,1)"/>
  <circle cx="18" cy="19" r="1" fill="rgba(141,211,95,1)"/>
  <circle cx="19" cy="19" r="1" fill="rgba(141,211,95,1)"/>
  <circle cx="20" cy="19" r="1" fill="rgba(141,211,95,1)"/>
  <circle cx="21" cy="19" r="1" fill="rgba(141,211,95,1)"/>
  <circle cx="22" cy="19" r="1" fill="rgba(141,211,95,1)"/>
  <circle cx="23" cy="19" r="1" fill="rgba(58.0392%,83.5294%,40.7828%,1)"/>
  <circle cx="0" cy="20" r="1" fill="rgba(56.0784%,82.7436%,38.0377%,1)"/>
  <circle cx="1" cy="20" r="1" fill="rgba(141,211,95,1)"/>
  <circle cx="2" cy="20" r="1" fill="rgba(141,211,95,1)"/>
  <circle cx="3" cy="20" r="1" fill="rgba(141,211,95,1)"/>
  <circle cx="4" cy="20" r="1" fill="rgba(141,211,95,1)"/>
  <circle cx="5" cy="20" r="1" fill="rgba(141,211,95,1)"/>
  <circle cx="6" cy="20" r="1" fill="rgba(141,211,95,1)"/>
  <circle cx="7" cy="20" r="1" fill="rgba(141,211,95,1)"/>
  <circle cx="8" cy="20" r="1" fill="rgba(141,211,95,1)"/>
  <circle cx="9" cy="20" r="1" fill="rgba(141,211,95,1)"/>
  <circle cx="10" cy="20" r="1" fill="rgba(141,211,95,1)"/>
  <circle cx="11" cy="20" r="1" fill="rgba(141,211,95,1)"/>
  <circle cx="12" cy="20" r="1" fill="rgba(141,211,95,1)"/>
  <circle cx="13" cy="20" r="1" fill="rgba(141,211,95,1)"/>
  <circle cx="14" cy="20" r="1" fill="rgba(141,211,95,1)"/>
  <circle cx="15" cy="20" r="1" fill="rgba(141,211,95,1)"/>
  <circle cx="16" cy="20" r="1" fill="rgba(141,211,95,1)"/>
  <circle cx="17" cy="20" r="1" fill="rgba(141,211,95,1)"/>
  <circle cx="18" cy="20" r="1" fill="rgba(141,211,95,1)"/>
  <circle cx="19" cy="20" r="1" fill="rgba(141,211,95,1)"/>
  <circle cx="20" cy="20" r="1" fill="rgba(141,211,95,1)"/>
  <circle cx="21" cy="20" r="1" fill="rgba(141,211,95,1)"/>
  <circle cx="22" cy="20" r="1" fill="rgba(141,211,95,1)"/>
  <circle cx="23" cy="20" r="1" fill="rgba(56.0784%,83.1357%,38.4314%,1)"/>
</svg>
