<?xml version="1.0" standalone="no"?>
<!DOCTYPE svg PUBLIC "-//W3C//DTD SVG 20010904//EN"
  "http://www.w3.org/TR/2001/REC-SVG-20010904/DTD/svg10.dtd">
<svg width="24" height="21">
  <circle cx="0" cy="0" r="1" fill="white"/>
  <circle cx="1" cy="0" r="1" fill="white"/>
  <circle cx="2" cy="0" r="1" fill="white"/>
  <circle cx="3" cy="0" r="1" fill="white"/>
  <circle cx="4" cy="0" r="1" fill="white"/>
  <circle cx="5" cy="0" r="1" fill="white"/>
  <circle cx="6" cy="0" r="1" fill="white"/>
  <circle cx="7" cy="0" r="1" fill="white"/>
  <circle cx="8" cy="0" r="1" fill="white"/>
  <circle cx="9" cy="0" r="1" fill="grey69"/>
  <circle cx="10" cy="0" r="1" fill="rgba(62,62,62,1)"/>
  <circle cx="11" cy="0" r="1" fill="rgba(17,17,17,1)"/>
  <circle cx="12" cy="0" r="1" fill="grey7"/>
  <circle cx="13" cy="0" r="1" fill="grey30"/>
  <circle cx="14" cy="0" r="1" fill="rgba(198,198,198,1)"/>
  <circle cx="15" cy="0" r="1" fill="white"/>
  <circle cx="16" cy="0" r="1" fill="white"/>
  <circle cx="17" cy="0" r="1" fill="white"/>
  <circle cx="18" cy="0" r="1" fill="white"/>
  <circle cx="19" cy="0" r="1" fill="white"/>
  <circle cx="20" cy="0" r="1" fill="white"/>
  <circle cx="21" cy="0" r="1" fill="white"/>
  <circle cx="22" cy="0" r="1" fill="white"/>
  <circle cx="23" cy="0" r="1" fill="white"/>
  <circle cx="0" cy="1" r="1" fill="white"/>
  <circle cx="1" cy="1" r="1" fill="white"/>
  <circle cx="2" cy="1" r="1" fill="white"/>
  <circle cx="3" cy="1" r="1" fill="white"/>
  <circle cx="4" cy="1" r="1" fill="white"/>
  <circle cx="5" cy="1" r="1" fill="white"/>
  <circle cx="6" cy="1" r="1" fill="white"/>
  <circle cx="7" cy="1" r="1" fill="white"/>
  <circle cx="8" cy="1" r="1" fill="grey42"/>
  <circle cx="9" cy="1" r="1" fill="black"/>
  <circle cx="10" cy="1" r="1" fill="black"/>
  <circle cx="11" cy="1" r="1" fill="black"/>
  <circle cx="12" cy="1" r="1" fill="black"/>
  <circle cx="13" cy="1" r="1" fill="black"/>
  <circle cx="14" cy="1" r="1" fill="rgba(2,2,2,1)"/>
  <circle cx="15" cy="1" r="1" fill="rgba(146,146,146,1)"/>
  <circle cx="16" cy="1" r="1" fill="white"/>
  <circle cx="17" cy="1" r="1" fill="white"/>
  <circle cx="18" cy="1" r="1" fill="white"/>
  <circle cx="19" cy="1" r="1" fill="white"/>
  <circle cx="20" cy="1" r="1" fill="white"/>
  <circle cx="21" cy="1" r="1" fill="white"/>
  <circle cx="22" cy="1" r="1" fill="white"/>
  <circle cx="23" cy="1" r="1" fill="white"/>
  <circle cx="0" cy="2" r="1" fill="white"/>
  <circle cx="1" cy="2" r="1" fill="white"/>
  <circle cx="2" cy="2" r="1" fill="white"/>
  <circle cx="3" cy="2" r="1" fill="white"/>
  <circle cx="4" cy="2" r="1" fill="white"/>
  <circle cx="5" cy="2" r="1" fill="white"/>
  <circle cx="6" cy="2" r="1" fill="white"/>
  <circle cx="7" cy="2" r="1" fill="rgba(159,159,159,1)"/>
  <circle cx="8" cy="2" r="1" fill="black"/>
  <circle cx="9" cy="2" r="1" fill="black"/>
  <circle cx="10" cy="2" r="1" fill="black"/>
  <circle cx="11" cy="2" r="1" fill="black"/>
  <circle cx="12" cy="2" r="1" fill="black"/>
  <circle cx="13" cy="2" r="1" fill="black"/>
  <circle cx="14" cy="2" r="1" fill="black"/>
  <circle cx="15" cy="2" r="1" fill="rgba(2,2,2,1)"/>
  <circle cx="16" cy="2" r="1" fill="grey78"/>
  <circle cx="17" cy="2" r="1" fill="white"/>
  <circle cx="18" cy="2" r="1" fill="white"/>
  <circle cx="19" cy="2" r="1" fill="white"/>
  <circle cx="20" cy="2" r="1" fill="white"/>
  <circle cx="21" cy="2" r="1" fill="white"/>
  <circle cx="22" cy="2" r="1" fill="white"/>
  <circle cx="23" cy="2" r="1" fill="white"/>
  <circle cx="0" cy="3" r="1" fill="white"/>
  <circle cx="1" cy="3" r="1" fill="white"/>
  <circle cx="2" cy="3" r="1" fill="white"/>
  <circle cx="3" cy="3" r="1" fill="white"/>
  <circle cx="4" cy="3" r="1" fill="white"/>
  <circle cx="5" cy="3" r="1" fill="white"/>
  <circle cx="6" cy="3" r="1" fill="white"/>
  <circle cx="7" cy="3" r="1" fill="rgba(47,47,47,1)"/>
  <circle cx="8" cy="3" r="1" fill="black"/>
  <circle cx="9" cy="3" r="1" fill="black"/>
  <circle cx="10" cy="3" r="1" fill="black"/>
  <circle cx="11" cy="3" r="1" fill="black"/>
  <circle cx="12" cy="3" r="1" fill="black"/>
  <circle cx="13" cy="3" r="1" fill="black"/>
  <circle cx="14" cy="3" r="1" fill="black"/>
  <circle cx="15" cy="3" r="1" fill="black"/>
  <circle cx="16" cy="3" r="1" fill="rgba(86,86,86,1)"/>
  <circle cx="17" cy="3" r="1" fill="white"/>
  <circle cx="18" cy="3" r="1" fill="white"/>
  <circle cx="19" cy="3" r="1" fill="white"/>
  <circle cx="20" cy="3" r="1" fill="white"/>
  <circle cx="21" cy="3" r="1" fill="white"/>
  <circle cx="22" cy="3" r="1" fill="white"/>
  <circle cx="23" cy="3" r="1" fill="white"/>
  <circle cx="0" cy="4" r="1" fill="white"/>
  <circle cx="1" cy="4" r="1" fill="white"/>
  <circle cx="2" cy="4" r="1" fill="white"/>
  <circle cx="3" cy="4" r="1" fill="white"/>
  <circle cx="4" cy="4" r="1" fill="white"/>
  <circle cx="5" cy="4" r="1" fill="white"/>
  <circle cx="6" cy="4" r="1" fill="rgba(248,248,248,1)"/>
  <circle cx="7" cy="4" r="1" fill="rgba(1,1,1,1)"/>
  <circle cx="8" cy="4" r="1" fill="black"/>
  <circle cx="9" cy="4" r="1" fill="black"/>
  <circle cx="10" cy="4" r="1" fill="black"/>
  <circle cx="11" cy="4" r="1" fill="black"/>
  <circle cx="12" cy="4" r="1" fill="black"/>
  <circle cx="13" cy="4" r="1" fill="black"/>
  <circle cx="14" cy="4" r="1" fill="black"/>
  <circle cx="15" cy="4" r="1" fill="black"/>
  <circle cx="16" cy="4" r="1" fill="rgba(30,30,30,1)"/>
  <circle cx="17" cy="4" r="1" fill="white"/>
  <circle cx="18" cy="4" r="1" fill="white"/>
  <circle cx="19" cy="4" r="1" fill="white"/>
  <circle cx="20" cy="4" r="1" fill="white"/>
  <circle cx="21" cy="4" r="1" fill="white"/>
  <circle cx="22" cy="4" r="1" fill="white"/>
  <circle cx="23" cy="4" r="1" fill="white"/>
  <circle cx="0" cy="5" r="1" fill="white"/>
  <circle cx="1" cy="5" r="1" fill="white"/>
  <circle cx="2" cy="5" r="1" fill="white"/>
  <circle cx="3" cy="5" r="1" fill="white"/>
  <circle cx="4" cy="5" r="1" fill="white"/>
  <circle cx="5" cy="5" r="1" fill="white"/>
  <circle cx="6" cy="5" r="1" fill="rgba(243,243,243,1)"/>
  <circle cx="7" cy="5" r="1" fill="black"/>
  <circle cx="8" cy="5" r="1" fill="black"/>
  <circle cx="9" cy="5" r="1" fill="black"/>
  <circle cx="10" cy="5" r="1" fill="black"/>
  <circle cx="11" cy="5" r="1" fill="black"/>
  <circle cx="12" cy="5" r="1" fill="black"/>
  <circle cx="13" cy="5" r="1" fill="black"/>
  <circle cx="14" cy="5" r="1" fill="black"/>
  <circle cx="15" cy="5" r="1" fill="black"/>
  <circle cx="16" cy="5" r="1" fill="grey9"/>
  <circle cx="17" cy="5" r="1" fill="white"/>
  <circle cx="18" cy="5" r="1" fill="white"/>
  <circle cx="19" cy="5" r="1" fill="white"/>
  <circle cx="20" cy="5" r="1" fill="white"/>
  <circle cx="21" cy="5" r="1" fill="white"/>
  <circle cx="22" cy="5" r="1" fill="white"/>
  <circle cx="23" cy="5" r="1" fill="white"/>
  <circle cx="0" cy="6" r="1" fill="white"/>
  <circle cx="1" cy="6" r="1" fill="white"/>
  <circle cx="2" cy="6" r="1" fill="white"/>
  <circle cx="3" cy="6" r="1" fill="white"/>
  <circle cx="4" cy="6" r="1" fill="white"/>
  <circle cx="5" cy="6" r="1" fill="white"/>
  <circle cx="6" cy="6" r="1" fill="white"/>
  <circle cx="7" cy="6" r="1" fill="rgba(30,30,30,1)"/>
  <circle cx="8" cy="6" r="1" fill="black"/>
  <circle cx="9" cy="6" r="1" fill="black"/>
  <circle cx="10" cy="6" r="1" fill="black"/>
  <circle cx="11" cy="6" r="1" fill="black"/>
  <circle cx="12" cy="6" r="1" fill="black"/>
  <circle cx="13" cy="6" r="1" fill="black"/>
  <circle cx="14" cy="6" r="1" fill="black"/>
  <circle cx="15" cy="6" r="1" fill="black"/>
  <circle cx="16" cy="6" r="1" fill="grey27"/>
  <circle cx="17" cy="6" r="1" fill="white"/>
  <circle cx="18" cy="6" r="1" fill="white"/>
  <circle cx="19" cy="6" r="1" fill="white"/>
  <circle cx="20" cy="6" r="1" fill="white"/>
  <circle cx="21" cy="6" r="1" fill="white"/>
  <circle cx="22" cy="6" r="1" fill="white"/>
  <circle cx="23" cy="6" r="1" fill="white"/>
  <circle cx="0" cy="7" r="1" fill="white"/>
  <circle cx="1" cy="7" r="1" fill="white"/>
  <circle cx="2" cy="7" r="1" fill="white"/>
  <circle cx="3" cy="7" r="1" fill="white"/>
  <circle cx="4" cy="7" r="1" fill="white"/>
  <circle cx="5" cy="7" r="1" fill="white"/>
  <circle cx="6" cy="7" r="1" fill="white"/>
  <circle cx="7" cy="7" r="1" fill="rgba(131,131,131,1)"/>
  <circle cx="8" cy="7" r="1" fill="black"/>
  <circle cx="9" cy="7" r="1" fill="black"/>
  <circle cx="10" cy="7" r="1" fill="black"/>
  <circle cx="11" cy="7" r="1" fill="black"/>
  <circle cx="12" cy="7" r="1" fill="black"/>
  <circle cx="13" cy="7" r="1" fill="black"/>
  <circle cx="14" cy="7" r="1" fill="black"/>
  <circle cx="15" cy="7" r="1" fill="black"/>
  <circle cx="16" cy="7" r="1" fill="grey67"/>
  <circle cx="17" cy="7" r="1" fill="white"/>
  <circle cx="18" cy="7" r="1" fill="white"/>
  <circle cx="19" cy="7" r="1" fill="white"/>
  <circle cx="20" cy="7" r="1" fill="white"/>
  <circle cx="21" cy="7" r="1" fill="white"/>
  <circle cx="22" cy="7" r="1" fill="white"/>
  <circle cx="23" cy="7" r="1" fill="white"/>
  <circle cx="0" cy="8" r="1" fill="white"/>
  <circle cx="1" cy="8" r="1" fill="white"/>
  <circle cx="2" cy="8" r="1" fill="white"/>
  <circle cx="3" cy="8" r="1" fill="white"/>
  <circle cx="4" cy="8" r="1" fill="white"/>
  <circle cx="5" cy="8" r="1" fill="white"/>
  <circle cx="6" cy="8" r="1" fill="white"/>
  <circle cx="7" cy="8" r="1" fill="grey97"/>
  <circle cx="8" cy="8" r="1" fill="rgba(53,53,53,1)"/>
  <circle cx="9" cy="8" r="1" fill="black"/>
  <circle cx="10" cy="8" r="1" fill="black"/>
  <circle cx="11" cy="8" r="1" fill="black"/>
  <circle cx="12" cy="8" r="1" fill="black"/>
  <circle cx="13" cy="8" r="1" fill="black"/>
  <circle cx="14" cy="8" r="1" fill="black"/>
  <circle cx="15" cy="8" r="1" fill="rgba(88,88,88,1)"/>
  <circle cx="16" cy="8" r="1" fill="white"/>
  <circle cx="17" cy="8" r="1" fill="white"/>
  <circle cx="18" cy="8" r="1" fill="white"/>
  <circle cx="19" cy="8" r="1" fill="white"/>
  <circle cx="20" cy="8" r="1" fill="white"/>
  <circle cx="21" cy="8" r="1" fill="white"/>
  <circle cx="22" cy="8" r="1" fill="white"/>
  <circle cx="23" cy="8" r="1" fill="white"/>
  <circle cx="0" cy="9" r="1" fill="white"/>
  <circle cx="1" cy="9" r="1" fill="white"/>
  <circle cx="2" cy="9" r="1" fill="white"/>
  <circle cx="3" cy="9" r="1" fill="white"/>
  <circle cx="4" cy="9" r="1" fill="white"/>
  <circle cx="5" cy="9" r="1" fill="white"/>
  <circle cx="6" cy="9" r="1" fill="white"/>
  <circle cx="7" cy="9" r="1" fill="white"/>
  <circle cx="8" cy="9" r="1" fill="rgba(243,243,243,1)"/>
  <circle cx="9" cy="9" r="1" fill="rgba(108,108,108,1)"/>
  <circle cx="10" cy="9" r="1" fill="rgba(11,11,11,1)"/>
  <circle cx="11" cy="9" r="1" fill="black"/>
  <circle cx="12" cy="9" r="1" fill="black"/>
  <circle cx="13" cy="9" r="1" fill="grey7"/>
  <circle cx="14" cy="9" r="1" fill="grey52"/>
  <circle cx="15" cy="9" r="1" fill="grey99"/>
  <circle cx="16" cy="9" r="1" fill="white"/>
  <circle cx="17" cy="9" r="1" fill="white"/>
  <circle cx="18" cy="9" r="1" fill="white"/>
  <circle cx="19" cy="9" r="1" fill="white"/>
  <circle cx="20" cy="9" r="1" fill="white"/>
  <circle cx="21" cy="9" r="1" fill="white"/>
  <circle cx="22" cy="9" r="1" fill="white"/>
  <circle cx="23" cy="9" r="1" fill="white"/>
  <circle cx="0" cy="10" r="1" fill="white"/>
  <circle cx="1" cy="10" r="1" fill="white"/>
  <circle cx="2" cy="10" r="1" fill="white"/>
  <circle cx="3" cy="10" r="1" fill="white"/>
  <circle cx="4" cy="10" r="1" fill="white"/>
  <circle cx="5" cy="10" r="1" fill="white"/>
  <circle cx="6" cy="10" r="1" fill="white"/>
  <circle cx="7" cy="10" r="1" fill="white"/>
  <circle cx="8" cy="10" r="1" fill="white"/>
  <circle cx="9" cy="10" r="1" fill="white"/>
  <circle cx="10" cy="10" r="1" fill="rgba(248,248,248,1)"/>
  <circle cx="11" cy="10" r="1" fill="LightGray"/>
  <circle cx="12" cy="10" r="1" fill="rgba(215,215,215,1)"/>
  <circle cx="13" cy="10" r="1" fill="grey99"/>
  <circle cx="14" cy="10" r="1" fill="white"/>
  <circle cx="15" cy="10" r="1" fill="white"/>
  <circle cx="16" cy="10" r="1" fill="white"/>
  <circle cx="17" cy="10" r="1" fill="white"/>
  <circle cx="18" cy="10" r="1" fill="white"/>
  <circle cx="19" cy="10" r="1" fill="white"/>
  <circle cx="20" cy="10" r="1" fill="white"/>
  <circle cx="21" cy="10" r="1" fill="white"/>
  <circle cx="22" cy="10" r="1" fill="white"/>
  <circle cx="23" cy="10" r="1" fill="white"/>
  <circle cx="0" cy="11" r="1" fill="white"/>
  <circle cx="1" cy="11" r="1" fill="white"/>
  <circle cx="2" cy="11" r="1" fill="white"/>
  <circle cx="3" cy="11" r="1" fill="white"/>
  <circle cx="4" cy="11" r="1" fill="white"/>
  <circle cx="5" cy="11" r="1" fill="rgba(223,223,223,1)"/>
  <circle cx="6" cy="11" r="1" fill="rgba(175,175,175,1)"/>
  <circle cx="7" cy="11" r="1" fill="rgba(170,170,170,1)"/>
  <circle cx="8" cy="11" r="1" fill="rgba(170,170,170,1)"/>
  <circle cx="9" cy="11" r="1" fill="rgba(170,170,170,1)"/>
  <circle cx="10" cy="11" r="1" fill="rgba(170,170,170,1)"/>
  <circle cx="11" cy="11" r="1" fill="rgba(170,170,170,1)"/>
  <circle cx="12" cy="11" r="1" fill="rgba(170,170,170,1)"/>
  <circle cx="13" cy="11" r="1" fill="rgba(170,170,170,1)"/>
  <circle cx="14" cy="11" r="1" fill="rgba(170,170,170,1)"/>
  <circle cx="15" cy="11" r="1" fill="rgba(170,170,170,1)"/>
  <circle cx="16" cy="11" r="1" fill="rgba(170,170,170,1)"/>
  <circle cx="17" cy="11" r="1" fill="grey76"/>
  <circle cx="18" cy="11" r="1" fill="rgba(241,241,241,1)"/>
  <circle cx="19" cy="11" r="1" fill="white"/>
  <circle cx="20" cy="11" r="1" fill="white"/>
  <circle cx="21" cy="11" r="1" fill="white"/>
  <circle cx="22" cy="11" r="1" fill="white"/>
  <circle cx="23" cy="11" r="1" fill="white"/>
  <circle cx="0" cy="12" r="1" fill="white"/>
  <circle cx="1" cy="12" r="1" fill="white"/>
  <circle cx="2" cy="12" r="1" fill="white"/>
  <circle cx="3" cy="12" r="1" fill="grey96"/>
  <circle cx="4" cy="12" r="1" fill="rgba(100,100,100,1)"/>
  <circle cx="5" cy="12" r="1" fill="rgba(2,2,2,1)"/>
  <circle cx="6" cy="12" r="1" fill="black"/>
  <circle cx="7" cy="12" r="1" fill="black"/>
  <circle cx="8" cy="12" r="1" fill="black"/>
  <circle cx="9" cy="12" r="1" fill="black"/>
  <circle cx="10" cy="12" r="1" fill="black"/>
  <circle cx="11" cy="12" r="1" fill="black"/>
  <circle cx="12" cy="12" r="1" fill="black"/>
  <circle cx="13" cy="12" r="1" fill="black"/>
  <circle cx="14" cy="12" r="1" fill="black"/>
  <circle cx="15" cy="12" r="1" fill="black"/>
  <circle cx="16" cy="12" r="1" fill="black"/>
  <circle cx="17" cy="12" r="1" fill="black"/>
  <circle cx="18" cy="12" r="1" fill="grey4"/>
  <circle cx="19" cy="12" r="1" fill="gray"/>
  <circle cx="20" cy="12" r="1" fill="rgba(251,251,251,1)"/>
  <circle cx="21" cy="12" r="1" fill="white"/>
  <circle cx="22" cy="12" r="1" fill="white"/>
  <circle cx="23" cy="12" r="1" fill="white"/>
  <circle cx="0" cy="13" r="1" fill="white"/>
  <circle cx="1" cy="13" r="1" fill="white"/>
  <circle cx="2" cy="13" r="1" fill="rgba(244,244,244,1)"/>
  <circle cx="3" cy="13" r="1" fill="rgba(60,60,60,1)"/>
  <circle cx="4" cy="13" r="1" fill="black"/>
  <circle cx="5" cy="13" r="1" fill="black"/>
  <circle cx="6" cy="13" r="1" fill="black"/>
  <circle cx="7" cy="13" r="1" fill="black"/>
  <circle cx="8" cy="13" r="1" fill="black"/>
  <circle cx="9" cy="13" r="1" fill="black"/>
  <circle cx="10" cy="13" r="1" fill="black"/>
  <circle cx="11" cy="13" r="1" fill="black"/>
  <circle cx="12" cy="13" r="1" fill="black"/>
  <circle cx="13" cy="13" r="1" fill="black"/>
  <circle cx="14" cy="13" r="1" fill="black"/>
  <circle cx="15" cy="13" r="1" fill="black"/>
  <circle cx="16" cy="13" r="1" fill="black"/>
  <circle cx="17" cy="13" r="1" fill="black"/>
  <circle cx="18" cy="13" r="1" fill="black"/>
  <circle cx="19" cy="13" r="1" fill="black"/>
  <circle cx="20" cy="13" r="1" fill="grey30"/>
  <circle cx="21" cy="13" r="1" fill="rgba(248,248,248,1)"/>
  <circle cx="22" cy="13" r="1" fill="white"/>
  <circle cx="23" cy="13" r="1" fill="white"/>
  <circle cx="0" cy="14" r="1" fill="white"/>
  <circle cx="1" cy="14" r="1" fill="white"/>
  <circle cx="2" cy="14" r="1" fill="rgba(86,86,86,1)"/>
  <circle cx="3" cy="14" r="1" fill="black"/>
  <circle cx="4" cy="14" r="1" fill="black"/>
  <circle cx="5" cy="14" r="1" fill="black"/>
  <circle cx="6" cy="14" r="1" fill="black"/>
  <circle cx="7" cy="14" r="1" fill="black"/>
  <circle cx="8" cy="14" r="1" fill="black"/>
  <circle cx="9" cy="14" r="1" fill="black"/>
  <circle cx="10" cy="14" r="1" fill="black"/>
  <circle cx="11" cy="14" r="1" fill="black"/>
  <circle cx="12" cy="14" r="1" fill="black"/>
  <circle cx="13" cy="14" r="1" fill="black"/>
  <circle cx="14" cy="14" r="1" fill="black"/>
  <circle cx="15" cy="14" r="1" fill="black"/>
  <circle cx="16" cy="14" r="1" fill="black"/>
  <circle cx="17" cy="14" r="1" fill="black"/>
  <circle cx="18" cy="14" r="1" fill="black"/>
  <circle cx="19" cy="14" r="1" fill="black"/>
  <circle cx="20" cy="14" r="1" fill="black"/>
  <circle cx="21" cy="14" r="1" fill="rgba(108,108,108,1)"/>
  <circle cx="22" cy="14" r="1" fill="white"/>
  <circle cx="23" cy="14" r="1" fill="white"/>
  <circle cx="0" cy="15" r="1" fill="white"/>
  <circle cx="1" cy="15" r="1" fill="rgba(185,185,185,1)"/>
  <circle cx="2" cy="15" r="1" fill="black"/>
  <circle cx="3" cy="15" r="1" fill="black"/>
  <circle cx="4" cy="15" r="1" fill="black"/>
  <circle cx="5" cy="15" r="1" fill="black"/>
  <circle cx="6" cy="15" r="1" fill="black"/>
  <circle cx="7" cy="15" r="1" fill="black"/>
  <circle cx="8" cy="15" r="1" fill="black"/>
  <circle cx="9" cy="15" r="1" fill="black"/>
  <circle cx="10" cy="15" r="1" fill="black"/>
  <circle cx="11" cy="15" r="1" fill="black"/>
  <circle cx="12" cy="15" r="1" fill="black"/>
  <circle cx="13" cy="15" r="1" fill="black"/>
  <circle cx="14" cy="15" r="1" fill="black"/>
  <circle cx="15" cy="15" r="1" fill="black"/>
  <circle cx="16" cy="15" r="1" fill="black"/>
  <circle cx="17" cy="15" r="1" fill="black"/>
  <circle cx="18" cy="15" r="1" fill="black"/>
  <circle cx="19" cy="15" r="1" fill="black"/>
  <circle cx="20" cy="15" r="1" fill="black"/>
  <circle cx="21" cy="15" r="1" fill="rgba(1,1,1,1)"/>
  <circle cx="22" cy="15" r="1" fill="rgba(200,200,200,1)"/>
  <circle cx="23" cy="15" r="1" fill="white"/>
  <circle cx="0" cy="16" r="1" fill="white"/>
  <circle cx="1" cy="16" r="1" fill="grey20"/>
  <circle cx="2" cy="16" r="1" fill="black"/>
  <circle cx="3" cy="16" r="1" fill="black"/>
  <circle cx="4" cy="16" r="1" fill="black"/>
  <circle cx="5" cy="16" r="1" fill="black"/>
  <circle cx="6" cy="16" r="1" fill="black"/>
  <circle cx="7" cy="16" r="1" fill="black"/>
  <circle cx="8" cy="16" r="1" fill="black"/>
  <circle cx="9" cy="16" r="1" fill="black"/>
  <circle cx="10" cy="16" r="1" fill="black"/>
  <circle cx="11" cy="16" r="1" fill="black"/>
  <circle cx="12" cy="16" r="1" fill="black"/>
  <circle cx="13" cy="16" r="1" fill="black"/>
  <circle cx="14" cy="16" r="1" fill="black"/>
  <circle cx="15" cy="16" r="1" fill="black"/>
  <circle cx="16" cy="16" r="1" fill="black"/>
  <circle cx="17" cy="16" r="1" fill="black"/>
  <circle cx="18" cy="16" r="1" fill="black"/>
  <circle cx="19" cy="16" r="1" fill="black"/>
  <circle cx="20" cy="16" r="1" fill="black"/>
  <circle cx="21" cy="16" r="1" fill="black"/>
  <circle cx="22" cy="16" r="1" fill="grey26"/>
  <circle cx="23" cy="16" r="1" fill="white"/>
  <circle cx="0" cy="17" r="1" fill="rgba(198,198,198,1)"/>
  <circle cx="1" cy="17" r="1" fill="black"/>
  <circle cx="2" cy="17" r="1" fill="black"/>
  <circle cx="3" cy="17" r="1" fill="black"/>
  <circle cx="4" cy="17" r="1" fill="black"/>
  <circle cx="5" cy="17" r="1" fill="black"/>
  <circle cx="6" cy="17" r="1" fill="black"/>
  <circle cx="7" cy="17" r="1" fill="black"/>
  <circle cx="8" cy="17" r="1" fill="black"/>
  <circle cx="9" cy="17" r="1" fill="black"/>
  <circle cx="10" cy="17" r="1" fill="black"/>
  <circle cx="11" cy="17" r="1" fill="black"/>
  <circle cx="12" cy="17" r="1" fill="black"/>
  <circle cx="13" cy="17" r="1" fill="black"/>
  <circle cx="14" cy="17" r="1" fill="black"/>
  <circle cx="15" cy="17" r="1" fill="black"/>
  <circle cx="16" cy="17" r="1" fill="black"/>
  <circle cx="17" cy="17" r="1" fill="black"/>
  <circle cx="18" cy="17" r="1" fill="black"/>
  <circle cx="19" cy="17" r="1" fill="black"/>
  <circle cx="20" cy="17" r="1" fill="black"/>
  <circle cx="21" cy="17" r="1" fill="black"/>
  <circle cx="22" cy="17" r="1" fill="black"/>
  <circle cx="23" cy="17" r="1" fill="rgba(208,208,208,1)"/>
  <circle cx="0" cy="18" r="1" fill="rgba(114,114,114,1)"/>
  <circle cx="1" cy="18" r="1" fill="black"/>
  <circle cx="2" cy="18" r="1" fill="black"/>
  <circle cx="3" cy="18" r="1" fill="black"/>
  <circle cx="4" cy="18" r="1" fill="black"/>
  <circle cx="5" cy="18" r="1" fill="black"/>
  <circle cx="6" cy="18" r="1" fill="black"/>
  <circle cx="7" cy="18" r="1" fill="black"/>
  <circle cx="8" cy="18" r="1" fill="black"/>
  <circle cx="9" cy="18" r="1" fill="black"/>
  <circle cx="10" cy="18" r="1" fill="black"/>
  <circle cx="11" cy="18" r="1" fill="black"/>
  <circle cx="12" cy="18" r="1" fill="black"/>
  <circle cx="13" cy="18" r="1" fill="black"/>
  <circle cx="14" cy="18" r="1" fill="black"/>
  <circle cx="15" cy="18" r="1" fill="black"/>
  <circle cx="16" cy="18" r="1" fill="black"/>
  <circle cx="17" cy="18" r="1" fill="black"/>
  <circle cx="18" cy="18" r="1" fill="black"/>
  <circle cx="19" cy="18" r="1" fill="black"/>
  <circle cx="20" cy="18" r="1" fill="black"/>
  <circle cx="21" cy="18" r="1" fill="black"/>
  <circle cx="22" cy="18" r="1" fill="black"/>
  <circle cx="23" cy="18" r="1" fill="rgba(123,123,123,1)"/>
  <circle cx="0" cy="19" r="1" fill="grey20"/>
  <circle cx="1" cy="19" r="1" fill="black"/>
  <circle cx="2" cy="19" r="1" fill="black"/>
  <circle cx="3" cy="19" r="1" fill="black"/>
  <circle cx="4" cy="19" r="1" fill="black"/>
  <circle cx="5" cy="19" r="1" fill="black"/>
  <circle cx="6" cy="19" r="1" fill="black"/>
  <circle cx="7" cy="19" r="1" fill="black"/>
  <circle cx="8" cy="19" r="1" fill="black"/>
  <circle cx="9" cy="19" r="1" fill="black"/>
  <circle cx="10" cy="19" r="1" fill="black"/>
  <circle cx="11" cy="19" r="1" fill="black"/>
  <circle cx="12" cy="19" r="1" fill="black"/>
  <circle cx="13" cy="19" r="1" fill="black"/>
  <circle cx="14" cy="19" r="1" fill="black"/>
  <circle cx="15" cy="19" r="1" fill="black"/>
  <circle cx="16" cy="19" r="1" fill="black"/>
  <circle cx="17" cy="19" r="1" fill="black"/>
  <circle cx="18" cy="19" r="1" fill="black"/>
  <circle cx="19" cy="19" r="1" fill="black"/>
  <circle cx="20" cy="19" r="1" fill="black"/>
  <circle cx="21" cy="19" r="1" fill="black"/>
  <circle cx="22" cy="19" r="1" fill="black"/>
  <circle cx="23" cy="19" r="1" fill="rgba(58,58,58,1)"/>
  <circle cx="0" cy="20" r="1" fill="grey6"/>
  <circle cx="1" cy="20" r="1" fill="black"/>
  <circle cx="2" cy="20" r="1" fill="black"/>
  <circle cx="3" cy="20" r="1" fill="black"/>
  <circle cx="4" cy="20" r="1" fill="black"/>
  <circle cx="5" cy="20" r="1" fill="black"/>
  <circle cx="6" cy="20" r="1" fill="black"/>
  <circle cx="7" cy="20" r="1" fill="black"/>
  <circle cx="8" cy="20" r="1" fill="black"/>
  <circle cx="9" cy="20" r="1" fill="black"/>
  <circle cx="10" cy="20" r="1" fill="black"/>
  <circle cx="11" cy="20" r="1" fill="black"/>
  <circle cx="12" cy="20" r="1" fill="black"/>
  <circle cx="13" cy="20" r="1" fill="black"/>
  <circle cx="14" cy="20" r="1" fill="black"/>
  <circle cx="15" cy="20" r="1" fill="black"/>
  <circle cx="16" cy="20" r="1" fill="black"/>
  <circle cx="17" cy="20" r="1" fill="black"/>
  <circle cx="18" cy="20" r="1" fill="black"/>
  <circle cx="19" cy="20" r="1" fill="black"/>
  <circle cx="20" cy="20" r="1" fill="black"/>
  <circle cx="21" cy="20" r="1" fill="black"/>
  <circle cx="22" cy="20" r="1" fill="black"/>
  <circle cx="23" cy="20" r="1" fill="rgba(17,17,17,1)"/>
</svg>
