<?xml version="1.0" standalone="no"?>
<!DOCTYPE svg PUBLIC "-//W3C//DTD SVG 20010904//EN"
  "http://www.w3.org/TR/2001/REC-SVG-20010904/DTD/svg10.dtd">
<svg width="24" height="21">
  <circle cx="0" cy="0" r="1" fill="white"/>
  <circle cx="1" cy="0" r="1" fill="white"/>
  <circle cx="2" cy="0" r="1" fill="white"/>
  <circle cx="3" cy="0" r="1" fill="white"/>
  <circle cx="4" cy="0" r="1" fill="white"/>
  <circle cx="5" cy="0" r="1" fill="white"/>
  <circle cx="6" cy="0" r="1" fill="white"/>
  <circle cx="7" cy="0" r="1" fill="white"/>
  <circle cx="8" cy="0" r="1" fill="rgba(255,219,196,1)"/>
  <circle cx="9" cy="0" r="1" fill="rgba(97.6455%,51.7647%,21.1765%,1)"/>
  <circle cx="10" cy="0" r="1" fill="rgba(95.6847%,48.6275%,17.2534%,1)"/>
  <circle cx="11" cy="0" r="1" fill="rgba(247,123,41,1)"/>
  <circle cx="12" cy="0" r="1" fill="rgba(247,123,41,1)"/>
  <circle cx="13" cy="0" r="1" fill="rgba(96.0784%,49.0181%,17.2534%,1)"/>
  <circle cx="14" cy="0" r="1" fill="rgba(247,137,64,1)"/>
  <circle cx="15" cy="0" r="1" fill="rgba(255,232,217,1)"/>
  <circle cx="16" cy="0" r="1" fill="white"/>
  <circle cx="17" cy="0" r="1" fill="white"/>
  <circle cx="18" cy="0" r="1" fill="white"/>
  <circle cx="19" cy="0" r="1" fill="white"/>
  <circle cx="20" cy="0" r="1" fill="white"/>
  <circle cx="21" cy="0" r="1" fill="white"/>
  <circle cx="22" cy="0" r="1" fill="white"/>
  <circle cx="23" cy="0" r="1" fill="white"/>
  <circle cx="0" cy="1" r="1" fill="white"/>
  <circle cx="1" cy="1" r="1" fill="white"/>
  <circle cx="2" cy="1" r="1" fill="white"/>
  <circle cx="3" cy="1" r="1" fill="white"/>
  <circle cx="4" cy="1" r="1" fill="white"/>
  <circle cx="5" cy="1" r="1" fill="white"/>
  <circle cx="6" cy="1" r="1" fill="white"/>
  <circle cx="7" cy="1" r="1" fill="rgba(255,219,195,1)"/>
  <circle cx="8" cy="1" r="1" fill="rgba(97.6471%,49.8024%,17.2534%,1)"/>
  <circle cx="9" cy="1" r="1" fill="rgba(255,127,42,1)"/>
  <circle cx="10" cy="1" r="1" fill="rgba(255,127,42,1)"/>
  <circle cx="11" cy="1" r="1" fill="rgba(255,127,42,1)"/>
  <circle cx="12" cy="1" r="1" fill="rgba(255,127,42,1)"/>
  <circle cx="13" cy="1" r="1" fill="rgba(255,127,42,1)"/>
  <circle cx="14" cy="1" r="1" fill="rgba(254,127,42,1)"/>
  <circle cx="15" cy="1" r="1" fill="rgba(98.4298%,50.1946%,18.4314%,1)"/>
  <circle cx="16" cy="1" r="1" fill="rgba(255,235,222,1)"/>
  <circle cx="17" cy="1" r="1" fill="white"/>
  <circle cx="18" cy="1" r="1" fill="white"/>
  <circle cx="19" cy="1" r="1" fill="white"/>
  <circle cx="20" cy="1" r="1" fill="white"/>
  <circle cx="21" cy="1" r="1" fill="white"/>
  <circle cx="22" cy="1" r="1" fill="white"/>
  <circle cx="23" cy="1" r="1" fill="white"/>
  <circle cx="0" cy="2" r="1" fill="white"/>
  <circle cx="1" cy="2" r="1" fill="white"/>
  <circle cx="2" cy="2" r="1" fill="white"/>
  <circle cx="3" cy="2" r="1" fill="white"/>
  <circle cx="4" cy="2" r="1" fill="white"/>
  <circle cx="5" cy="2" r="1" fill="white"/>
  <circle cx="6" cy="2" r="1" fill="rgba(255,250,247,1)"/>
  <circle cx="7" cy="2" r="1" fill="rgba(97.6471%,50.5882%,19.6063%,1)"/>
  <circle cx="8" cy="2" r="1" fill="rgba(255,127,42,1)"/>
  <circle cx="9" cy="2" r="1" fill="rgba(255,127,42,1)"/>
  <circle cx="10" cy="2" r="1" fill="rgba(255,127,42,1)"/>
  <circle cx="11" cy="2" r="1" fill="rgba(255,127,42,1)"/>
  <circle cx="12" cy="2" r="1" fill="rgba(255,127,42,1)"/>
  <circle cx="13" cy="2" r="1" fill="rgba(255,127,42,1)"/>
  <circle cx="14" cy="2" r="1" fill="rgba(255,127,42,1)"/>
  <circle cx="15" cy="2" r="1" fill="rgba(254,127,42,1)"/>
  <circle cx="16" cy="2" r="1" fill="rgba(96.0784%,54.9004%,27.451%,1)"/>
  <circle cx="17" cy="2" r="1" fill="white"/>
  <circle cx="18" cy="2" r="1" fill="white"/>
  <circle cx="19" cy="2" r="1" fill="white"/>
  <circle cx="20" cy="2" r="1" fill="white"/>
  <circle cx="21" cy="2" r="1" fill="white"/>
  <circle cx="22" cy="2" r="1" fill="white"/>
  <circle cx="23" cy="2" r="1" fill="white"/>
  <circle cx="0" cy="3" r="1" fill="white"/>
  <circle cx="1" cy="3" r="1" fill="white"/>
  <circle cx="2" cy="3" r="1" fill="white"/>
  <circle cx="3" cy="3" r="1" fill="white"/>
  <circle cx="4" cy="3" r="1" fill="white"/>
  <circle cx="5" cy="3" r="1" fill="white"/>
  <circle cx="6" cy="3" r="1" fill="rgba(255,212,183,1)"/>
  <circle cx="7" cy="3" r="1" fill="rgba(95.6847%,48.2338%,16.0784%,1)"/>
  <circle cx="8" cy="3" r="1" fill="rgba(255,127,42,1)"/>
  <circle cx="9" cy="3" r="1" fill="rgba(255,127,42,1)"/>
  <circle cx="10" cy="3" r="1" fill="rgba(255,127,42,1)"/>
  <circle cx="11" cy="3" r="1" fill="rgba(255,127,42,1)"/>
  <circle cx="12" cy="3" r="1" fill="rgba(255,127,42,1)"/>
  <circle cx="13" cy="3" r="1" fill="rgba(255,127,42,1)"/>
  <circle cx="14" cy="3" r="1" fill="rgba(255,127,42,1)"/>
  <circle cx="15" cy="3" r="1" fill="rgba(255,127,42,1)"/>
  <circle cx="16" cy="3" r="1" fill="rgba(97.2549%,49.4102%,17.6455%,1)"/>
  <circle cx="17" cy="3" r="1" fill="rgba(255,232,217,1)"/>
  <circle cx="18" cy="3" r="1" fill="white"/>
  <circle cx="19" cy="3" r="1" fill="white"/>
  <circle cx="20" cy="3" r="1" fill="white"/>
  <circle cx="21" cy="3" r="1" fill="white"/>
  <circle cx="22" cy="3" r="1" fill="white"/>
  <circle cx="23" cy="3" r="1" fill="white"/>
  <circle cx="0" cy="4" r="1" fill="white"/>
  <circle cx="1" cy="4" r="1" fill="white"/>
  <circle cx="2" cy="4" r="1" fill="white"/>
  <circle cx="3" cy="4" r="1" fill="white"/>
  <circle cx="4" cy="4" r="1" fill="white"/>
  <circle cx="5" cy="4" r="1" fill="white"/>
  <circle cx="6" cy="4" r="1" fill="rgba(98.4298%,70.9789%,52.9412%,1)"/>
  <circle cx="7" cy="4" r="1" fill="rgba(254,127,42,1)"/>
  <circle cx="8" cy="4" r="1" fill="rgba(255,127,42,1)"/>
  <circle cx="9" cy="4" r="1" fill="rgba(255,127,42,1)"/>
  <circle cx="10" cy="4" r="1" fill="rgba(255,127,42,1)"/>
  <circle cx="11" cy="4" r="1" fill="rgba(255,127,42,1)"/>
  <circle cx="12" cy="4" r="1" fill="rgba(255,127,42,1)"/>
  <circle cx="13" cy="4" r="1" fill="rgba(255,127,42,1)"/>
  <circle cx="14" cy="4" r="1" fill="rgba(255,127,42,1)"/>
  <circle cx="15" cy="4" r="1" fill="rgba(255,127,42,1)"/>
  <circle cx="16" cy="4" r="1" fill="rgba(96.4691%,48.2338%,16.4706%,1)"/>
  <circle cx="17" cy="4" r="1" fill="rgba(255,205,172,1)"/>
  <circle cx="18" cy="4" r="1" fill="white"/>
  <circle cx="19" cy="4" r="1" fill="white"/>
  <circle cx="20" cy="4" r="1" fill="white"/>
  <circle cx="21" cy="4" r="1" fill="white"/>
  <circle cx="22" cy="4" r="1" fill="white"/>
  <circle cx="23" cy="4" r="1" fill="white"/>
  <circle cx="0" cy="5" r="1" fill="white"/>
  <circle cx="1" cy="5" r="1" fill="white"/>
  <circle cx="2" cy="5" r="1" fill="white"/>
  <circle cx="3" cy="5" r="1" fill="white"/>
  <circle cx="4" cy="5" r="1" fill="white"/>
  <circle cx="5" cy="5" r="1" fill="white"/>
  <circle cx="6" cy="5" r="1" fill="rgba(250,178,129,1)"/>
  <circle cx="7" cy="5" r="1" fill="rgba(255,127,42,1)"/>
  <circle cx="8" cy="5" r="1" fill="rgba(255,127,42,1)"/>
  <circle cx="9" cy="5" r="1" fill="rgba(255,127,42,1)"/>
  <circle cx="10" cy="5" r="1" fill="rgba(255,127,42,1)"/>
  <circle cx="11" cy="5" r="1" fill="rgba(255,127,42,1)"/>
  <circle cx="12" cy="5" r="1" fill="rgba(255,127,42,1)"/>
  <circle cx="13" cy="5" r="1" fill="rgba(255,127,42,1)"/>
  <circle cx="14" cy="5" r="1" fill="rgba(255,127,42,1)"/>
  <circle cx="15" cy="5" r="1" fill="rgba(255,127,42,1)"/>
  <circle cx="16" cy="5" r="1" fill="rgba(96.8612%,48.6275%,16.0784%,1)"/>
  <circle cx="17" cy="5" r="1" fill="rgba(255,203,168,1)"/>
  <circle cx="18" cy="5" r="1" fill="white"/>
  <circle cx="19" cy="5" r="1" fill="white"/>
  <circle cx="20" cy="5" r="1" fill="white"/>
  <circle cx="21" cy="5" r="1" fill="white"/>
  <circle cx="22" cy="5" r="1" fill="white"/>
  <circle cx="23" cy="5" r="1" fill="white"/>
  <circle cx="0" cy="6" r="1" fill="white"/>
  <circle cx="1" cy="6" r="1" fill="white"/>
  <circle cx="2" cy="6" r="1" fill="white"/>
  <circle cx="3" cy="6" r="1" fill="white"/>
  <circle cx="4" cy="6" r="1" fill="white"/>
  <circle cx="5" cy="6" r="1" fill="white"/>
  <circle cx="6" cy="6" r="1" fill="rgba(255,204,170,1)"/>
  <circle cx="7" cy="6" r="1" fill="rgba(96.0769%,48.2353%,16.0784%,1)"/>
  <circle cx="8" cy="6" r="1" fill="rgba(255,127,42,1)"/>
  <circle cx="9" cy="6" r="1" fill="rgba(255,127,42,1)"/>
  <circle cx="10" cy="6" r="1" fill="rgba(255,127,42,1)"/>
  <circle cx="11" cy="6" r="1" fill="rgba(255,127,42,1)"/>
  <circle cx="12" cy="6" r="1" fill="rgba(255,127,42,1)"/>
  <circle cx="13" cy="6" r="1" fill="rgba(255,127,42,1)"/>
  <circle cx="14" cy="6" r="1" fill="rgba(255,127,42,1)"/>
  <circle cx="15" cy="6" r="1" fill="rgba(255,127,42,1)"/>
  <circle cx="16" cy="6" r="1" fill="rgba(95.6847%,48.6275%,17.2534%,1)"/>
  <circle cx="17" cy="6" r="1" fill="rgba(255,223,202,1)"/>
  <circle cx="18" cy="6" r="1" fill="white"/>
  <circle cx="19" cy="6" r="1" fill="white"/>
  <circle cx="20" cy="6" r="1" fill="white"/>
  <circle cx="21" cy="6" r="1" fill="white"/>
  <circle cx="22" cy="6" r="1" fill="white"/>
  <circle cx="23" cy="6" r="1" fill="white"/>
  <circle cx="0" cy="7" r="1" fill="white"/>
  <circle cx="1" cy="7" r="1" fill="white"/>
  <circle cx="2" cy="7" r="1" fill="white"/>
  <circle cx="3" cy="7" r="1" fill="white"/>
  <circle cx="4" cy="7" r="1" fill="white"/>
  <circle cx="5" cy="7" r="1" fill="white"/>
  <circle cx="6" cy="7" r="1" fill="rgba(255,243,236,1)"/>
  <circle cx="7" cy="7" r="1" fill="rgba(98.0392%,50.1961%,17.6455%,1)"/>
  <circle cx="8" cy="7" r="1" fill="rgba(255,127,42,1)"/>
  <circle cx="9" cy="7" r="1" fill="rgba(255,127,42,1)"/>
  <circle cx="10" cy="7" r="1" fill="rgba(255,127,42,1)"/>
  <circle cx="11" cy="7" r="1" fill="rgba(255,127,42,1)"/>
  <circle cx="12" cy="7" r="1" fill="rgba(255,127,42,1)"/>
  <circle cx="13" cy="7" r="1" fill="rgba(255,127,42,1)"/>
  <circle cx="14" cy="7" r="1" fill="rgba(255,127,42,1)"/>
  <circle cx="15" cy="7" r="1" fill="rgba(255,127,42,1)"/>
  <circle cx="16" cy="7" r="1" fill="rgba(97.6471%,51.371%,20.7843%,1)"/>
  <circle cx="17" cy="7" r="1" fill="rgba(255,253,252,1)"/>
  <circle cx="18" cy="7" r="1" fill="white"/>
  <circle cx="19" cy="7" r="1" fill="white"/>
  <circle cx="20" cy="7" r="1" fill="white"/>
  <circle cx="21" cy="7" r="1" fill="white"/>
  <circle cx="22" cy="7" r="1" fill="white"/>
  <circle cx="23" cy="7" r="1" fill="white"/>
  <circle cx="0" cy="8" r="1" fill="white"/>
  <circle cx="1" cy="8" r="1" fill="white"/>
  <circle cx="2" cy="8" r="1" fill="white"/>
  <circle cx="3" cy="8" r="1" fill="white"/>
  <circle cx="4" cy="8" r="1" fill="white"/>
  <circle cx="5" cy="8" r="1" fill="white"/>
  <circle cx="6" cy="8" r="1" fill="white"/>
  <circle cx="7" cy="8" r="1" fill="rgba(250,189,149,1)"/>
  <circle cx="8" cy="8" r="1" fill="rgba(96.4691%,48.6259%,16.4706%,1)"/>
  <circle cx="9" cy="8" r="1" fill="rgba(255,127,42,1)"/>
  <circle cx="10" cy="8" r="1" fill="rgba(255,127,42,1)"/>
  <circle cx="11" cy="8" r="1" fill="rgba(255,127,42,1)"/>
  <circle cx="12" cy="8" r="1" fill="rgba(255,127,42,1)"/>
  <circle cx="13" cy="8" r="1" fill="rgba(255,127,42,1)"/>
  <circle cx="14" cy="8" r="1" fill="rgba(255,127,42,1)"/>
  <circle cx="15" cy="8" r="1" fill="rgba(97.2549%,49.4102%,17.2534%,1)"/>
  <circle cx="16" cy="8" r="1" fill="rgba(255,217,192,1)"/>
  <circle cx="17" cy="8" r="1" fill="white"/>
  <circle cx="18" cy="8" r="1" fill="white"/>
  <circle cx="19" cy="8" r="1" fill="white"/>
  <circle cx="20" cy="8" r="1" fill="white"/>
  <circle cx="21" cy="8" r="1" fill="white"/>
  <circle cx="22" cy="8" r="1" fill="white"/>
  <circle cx="23" cy="8" r="1" fill="white"/>
  <circle cx="0" cy="9" r="1" fill="white"/>
  <circle cx="1" cy="9" r="1" fill="white"/>
  <circle cx="2" cy="9" r="1" fill="white"/>
  <circle cx="3" cy="9" r="1" fill="white"/>
  <circle cx="4" cy="9" r="1" fill="white"/>
  <circle cx="5" cy="9" r="1" fill="white"/>
  <circle cx="6" cy="9" r="1" fill="white"/>
  <circle cx="7" cy="9" r="1" fill="white"/>
  <circle cx="8" cy="9" r="1" fill="rgba(250,182,137,1)"/>
  <circle cx="9" cy="9" r="1" fill="rgba(98.0377%,49.8024%,17.6455%,1)"/>
  <circle cx="10" cy="9" r="1" fill="rgba(250,125,41,1)"/>
  <circle cx="11" cy="9" r="1" fill="rgba(255,127,42,1)"/>
  <circle cx="12" cy="9" r="1" fill="rgba(255,127,42,1)"/>
  <circle cx="13" cy="9" r="1" fill="rgba(247,124,40,1)"/>
  <circle cx="14" cy="9" r="1" fill="rgba(98.4298%,49.8024%,17.2534%,1)"/>
  <circle cx="15" cy="9" r="1" fill="rgba(253,205,173,1)"/>
  <circle cx="16" cy="9" r="1" fill="white"/>
  <circle cx="17" cy="9" r="1" fill="white"/>
  <circle cx="18" cy="9" r="1" fill="white"/>
  <circle cx="19" cy="9" r="1" fill="white"/>
  <circle cx="20" cy="9" r="1" fill="white"/>
  <circle cx="21" cy="9" r="1" fill="white"/>
  <circle cx="22" cy="9" r="1" fill="white"/>
  <circle cx="23" cy="9" r="1" fill="white"/>
  <circle cx="0" cy="10" r="1" fill="white"/>
  <circle cx="1" cy="10" r="1" fill="white"/>
  <circle cx="2" cy="10" r="1" fill="white"/>
  <circle cx="3" cy="10" r="1" fill="white"/>
  <circle cx="4" cy="10" r="1" fill="white"/>
  <circle cx="5" cy="10" r="1" fill="white"/>
  <circle cx="6" cy="10" r="1" fill="white"/>
  <circle cx="7" cy="10" r="1" fill="white"/>
  <circle cx="8" cy="10" r="1" fill="white"/>
  <circle cx="9" cy="10" r="1" fill="rgba(255,233,219,1)"/>
  <circle cx="10" cy="10" r="1" fill="rgba(251,181,134,1)"/>
  <circle cx="11" cy="10" r="1" fill="rgba(243,150,87,1)"/>
  <circle cx="12" cy="10" r="1" fill="rgba(243,152,90,1)"/>
  <circle cx="13" cy="10" r="1" fill="rgba(254,191,149,1)"/>
  <circle cx="14" cy="10" r="1" fill="rgba(255,240,231,1)"/>
  <circle cx="15" cy="10" r="1" fill="white"/>
  <circle cx="16" cy="10" r="1" fill="white"/>
  <circle cx="17" cy="10" r="1" fill="white"/>
  <circle cx="18" cy="10" r="1" fill="white"/>
  <circle cx="19" cy="10" r="1" fill="white"/>
  <circle cx="20" cy="10" r="1" fill="white"/>
  <circle cx="21" cy="10" r="1" fill="white"/>
  <circle cx="22" cy="10" r="1" fill="white"/>
  <circle cx="23" cy="10" r="1" fill="white"/>
  <circle cx="0" cy="11" r="1" fill="white"/>
  <circle cx="1" cy="11" r="1" fill="white"/>
  <circle cx="2" cy="11" r="1" fill="white"/>
  <circle cx="3" cy="11" r="1" fill="white"/>
  <circle cx="4" cy="11" r="1" fill="rgba(255,229,212,1)"/>
  <circle cx="5" cy="11" r="1" fill="rgba(99.9985%,66.6667%,44.3122%,1)"/>
  <circle cx="6" cy="11" r="1" fill="rgba(100%,56.0784%,26.6651%,1)"/>
  <circle cx="7" cy="11" r="1" fill="rgba(255,139,61,1)"/>
  <circle cx="8" cy="11" r="1" fill="rgba(255,139,61,1)"/>
  <circle cx="9" cy="11" r="1" fill="rgba(255,139,61,1)"/>
  <circle cx="10" cy="11" r="1" fill="rgba(255,139,61,1)"/>
  <circle cx="11" cy="11" r="1" fill="rgba(255,139,61,1)"/>
  <circle cx="12" cy="11" r="1" fill="rgba(255,139,61,1)"/>
  <circle cx="13" cy="11" r="1" fill="rgba(255,139,61,1)"/>
  <circle cx="14" cy="11" r="1" fill="rgba(255,139,61,1)"/>
  <circle cx="15" cy="11" r="1" fill="rgba(255,139,61,1)"/>
  <circle cx="16" cy="11" r="1" fill="rgba(255,139,61,1)"/>
  <circle cx="17" cy="11" r="1" fill="rgba(99.9985%,57.6471%,29.4118%,1)"/>
  <circle cx="18" cy="11" r="1" fill="rgba(99.9985%,69.4118%,49.4102%,1)"/>
  <circle cx="19" cy="11" r="1" fill="rgba(255,237,225,1)"/>
  <circle cx="20" cy="11" r="1" fill="white"/>
  <circle cx="21" cy="11" r="1" fill="white"/>
  <circle cx="22" cy="11" r="1" fill="white"/>
  <circle cx="23" cy="11" r="1" fill="white"/>
  <circle cx="0" cy="12" r="1" fill="white"/>
  <circle cx="1" cy="12" r="1" fill="white"/>
  <circle cx="2" cy="12" r="1" fill="white"/>
  <circle cx="3" cy="12" r="1" fill="rgba(255,187,142,1)"/>
  <circle cx="4" cy="12" r="1" fill="rgba(99.9985%,52.1569%,20%,1)"/>
  <circle cx="5" cy="12" r="1" fill="rgba(255,127,43,1)"/>
  <circle cx="6" cy="12" r="1" fill="rgba(255,127,42,1)"/>
  <circle cx="7" cy="12" r="1" fill="rgba(255,127,42,1)"/>
  <circle cx="8" cy="12" r="1" fill="rgba(255,127,42,1)"/>
  <circle cx="9" cy="12" r="1" fill="rgba(255,127,42,1)"/>
  <circle cx="10" cy="12" r="1" fill="rgba(255,127,42,1)"/>
  <circle cx="11" cy="12" r="1" fill="rgba(255,127,42,1)"/>
  <circle cx="12" cy="12" r="1" fill="rgba(255,127,42,1)"/>
  <circle cx="13" cy="12" r="1" fill="rgba(255,127,42,1)"/>
  <circle cx="14" cy="12" r="1" fill="rgba(255,127,42,1)"/>
  <circle cx="15" cy="12" r="1" fill="rgba(255,127,42,1)"/>
  <circle cx="16" cy="12" r="1" fill="rgba(255,127,42,1)"/>
  <circle cx="17" cy="12" r="1" fill="rgba(255,127,42,1)"/>
  <circle cx="18" cy="12" r="1" fill="rgba(100%,50.5882%,18.0377%,1)"/>
  <circle cx="19" cy="12" r="1" fill="rgba(100%,51.7632%,20%,1)"/>
  <circle cx="20" cy="12" r="1" fill="rgba(255,201,166,1)"/>
  <circle cx="21" cy="12" r="1" fill="white"/>
  <circle cx="22" cy="12" r="1" fill="white"/>
  <circle cx="23" cy="12" r="1" fill="white"/>
  <circle cx="0" cy="13" r="1" fill="white"/>
  <circle cx="1" cy="13" r="1" fill="white"/>
  <circle cx="2" cy="13" r="1" fill="rgba(255,192,151,1)"/>
  <circle cx="3" cy="13" r="1" fill="rgba(100%,52.1553%,20.3906%,1)"/>
  <circle cx="4" cy="13" r="1" fill="rgba(255,127,42,1)"/>
  <circle cx="5" cy="13" r="1" fill="rgba(255,127,42,1)"/>
  <circle cx="6" cy="13" r="1" fill="rgba(255,127,42,1)"/>
  <circle cx="7" cy="13" r="1" fill="rgba(255,127,42,1)"/>
  <circle cx="8" cy="13" r="1" fill="rgba(255,127,42,1)"/>
  <circle cx="9" cy="13" r="1" fill="rgba(255,127,42,1)"/>
  <circle cx="10" cy="13" r="1" fill="rgba(255,127,42,1)"/>
  <circle cx="11" cy="13" r="1" fill="rgba(255,127,42,1)"/>
  <circle cx="12" cy="13" r="1" fill="rgba(255,127,42,1)"/>
  <circle cx="13" cy="13" r="1" fill="rgba(255,127,42,1)"/>
  <circle cx="14" cy="13" r="1" fill="rgba(255,127,42,1)"/>
  <circle cx="15" cy="13" r="1" fill="rgba(255,127,42,1)"/>
  <circle cx="16" cy="13" r="1" fill="rgba(255,127,42,1)"/>
  <circle cx="17" cy="13" r="1" fill="rgba(255,127,42,1)"/>
  <circle cx="18" cy="13" r="1" fill="rgba(255,127,42,1)"/>
  <circle cx="19" cy="13" r="1" fill="rgba(255,127,42,1)"/>
  <circle cx="20" cy="13" r="1" fill="rgba(255,133,51,1)"/>
  <circle cx="21" cy="13" r="1" fill="rgba(255,202,168,1)"/>
  <circle cx="22" cy="13" r="1" fill="white"/>
  <circle cx="23" cy="13" r="1" fill="white"/>
  <circle cx="0" cy="14" r="1" fill="white"/>
  <circle cx="1" cy="14" r="1" fill="rgba(255,225,205,1)"/>
  <circle cx="2" cy="14" r="1" fill="rgba(100%,51.371%,19.2157%,1)"/>
  <circle cx="3" cy="14" r="1" fill="rgba(255,127,42,1)"/>
  <circle cx="4" cy="14" r="1" fill="rgba(255,127,42,1)"/>
  <circle cx="5" cy="14" r="1" fill="rgba(255,127,42,1)"/>
  <circle cx="6" cy="14" r="1" fill="rgba(255,127,42,1)"/>
  <circle cx="7" cy="14" r="1" fill="rgba(255,127,42,1)"/>
  <circle cx="8" cy="14" r="1" fill="rgba(255,127,42,1)"/>
  <circle cx="9" cy="14" r="1" fill="rgba(255,127,42,1)"/>
  <circle cx="10" cy="14" r="1" fill="rgba(255,127,42,1)"/>
  <circle cx="11" cy="14" r="1" fill="rgba(255,127,42,1)"/>
  <circle cx="12" cy="14" r="1" fill="rgba(255,127,42,1)"/>
  <circle cx="13" cy="14" r="1" fill="rgba(255,127,42,1)"/>
  <circle cx="14" cy="14" r="1" fill="rgba(255,127,42,1)"/>
  <circle cx="15" cy="14" r="1" fill="rgba(255,127,42,1)"/>
  <circle cx="16" cy="14" r="1" fill="rgba(255,127,42,1)"/>
  <circle cx="17" cy="14" r="1" fill="rgba(255,127,42,1)"/>
  <circle cx="18" cy="14" r="1" fill="rgba(255,127,42,1)"/>
  <circle cx="19" cy="14" r="1" fill="rgba(255,127,42,1)"/>
  <circle cx="20" cy="14" r="1" fill="rgba(255,127,42,1)"/>
  <circle cx="21" cy="14" r="1" fill="rgba(255,132,50,1)"/>
  <circle cx="22" cy="14" r="1" fill="rgba(255,232,217,1)"/>
  <circle cx="23" cy="14" r="1" fill="white"/>
  <circle cx="0" cy="15" r="1" fill="rgba(255,254,253,1)"/>
  <circle cx="1" cy="15" r="1" fill="rgba(99.9985%,56.8627%,27.8416%,1)"/>
  <circle cx="2" cy="15" r="1" fill="rgba(255,127,42,1)"/>
  <circle cx="3" cy="15" r="1" fill="rgba(255,127,42,1)"/>
  <circle cx="4" cy="15" r="1" fill="rgba(255,127,42,1)"/>
  <circle cx="5" cy="15" r="1" fill="rgba(255,127,42,1)"/>
  <circle cx="6" cy="15" r="1" fill="rgba(255,127,42,1)"/>
  <circle cx="7" cy="15" r="1" fill="rgba(255,127,42,1)"/>
  <circle cx="8" cy="15" r="1" fill="rgba(255,127,42,1)"/>
  <circle cx="9" cy="15" r="1" fill="rgba(255,127,42,1)"/>
  <circle cx="10" cy="15" r="1" fill="rgba(255,127,42,1)"/>
  <circle cx="11" cy="15" r="1" fill="rgba(255,127,42,1)"/>
  <circle cx="12" cy="15" r="1" fill="rgba(255,127,42,1)"/>
  <circle cx="13" cy="15" r="1" fill="rgba(255,127,42,1)"/>
  <circle cx="14" cy="15" r="1" fill="rgba(255,127,42,1)"/>
  <circle cx="15" cy="15" r="1" fill="rgba(255,127,42,1)"/>
  <circle cx="16" cy="15" r="1" fill="rgba(255,127,42,1)"/>
  <circle cx="17" cy="15" r="1" fill="rgba(255,127,42,1)"/>
  <circle cx="18" cy="15" r="1" fill="rgba(255,127,42,1)"/>
  <circle cx="19" cy="15" r="1" fill="rgba(255,127,42,1)"/>
  <circle cx="20" cy="15" r="1" fill="rgba(255,127,42,1)"/>
  <circle cx="21" cy="15" r="1" fill="rgba(255,128,43,1)"/>
  <circle cx="22" cy="15" r="1" fill="rgba(255,149,79,1)"/>
  <circle cx="23" cy="15" r="1" fill="rgba(255,254,254,1)"/>
  <circle cx="0" cy="16" r="1" fill="rgba(255,211,181,1)"/>
  <circle cx="1" cy="16" r="1" fill="rgba(100%,52.549%,20.3906%,1)"/>
  <circle cx="2" cy="16" r="1" fill="rgba(255,127,42,1)"/>
  <circle cx="3" cy="16" r="1" fill="rgba(255,127,42,1)"/>
  <circle cx="4" cy="16" r="1" fill="rgba(255,127,42,1)"/>
  <circle cx="5" cy="16" r="1" fill="rgba(255,127,42,1)"/>
  <circle cx="6" cy="16" r="1" fill="rgba(255,127,42,1)"/>
  <circle cx="7" cy="16" r="1" fill="rgba(255,127,42,1)"/>
  <circle cx="8" cy="16" r="1" fill="rgba(255,127,42,1)"/>
  <circle cx="9" cy="16" r="1" fill="rgba(255,127,42,1)"/>
  <circle cx="10" cy="16" r="1" fill="rgba(255,127,42,1)"/>
  <circle cx="11" cy="16" r="1" fill="rgba(255,127,42,1)"/>
  <circle cx="12" cy="16" r="1" fill="rgba(255,127,42,1)"/>
  <circle cx="13" cy="16" r="1" fill="rgba(255,127,42,1)"/>
  <circle cx="14" cy="16" r="1" fill="rgba(255,127,42,1)"/>
  <circle cx="15" cy="16" r="1" fill="rgba(255,127,42,1)"/>
  <circle cx="16" cy="16" r="1" fill="rgba(255,127,42,1)"/>
  <circle cx="17" cy="16" r="1" fill="rgba(255,127,42,1)"/>
  <circle cx="18" cy="16" r="1" fill="rgba(255,127,42,1)"/>
  <circle cx="19" cy="16" r="1" fill="rgba(255,127,42,1)"/>
  <circle cx="20" cy="16" r="1" fill="rgba(255,127,42,1)"/>
  <circle cx="21" cy="16" r="1" fill="rgba(255,127,42,1)"/>
  <circle cx="22" cy="16" r="1" fill="rgba(99.9985%,51.7632%,20%,1)"/>
  <circle cx="23" cy="16" r="1" fill="rgba(255,216,191,1)"/>
  <circle cx="0" cy="17" r="1" fill="rgba(99.9985%,59.6078%,32.549%,1)"/>
  <circle cx="1" cy="17" r="1" fill="rgba(255,127,42,1)"/>
  <circle cx="2" cy="17" r="1" fill="rgba(255,127,42,1)"/>
  <circle cx="3" cy="17" r="1" fill="rgba(255,127,42,1)"/>
  <circle cx="4" cy="17" r="1" fill="rgba(255,127,42,1)"/>
  <circle cx="5" cy="17" r="1" fill="rgba(255,127,42,1)"/>
  <circle cx="6" cy="17" r="1" fill="rgba(255,127,42,1)"/>
  <circle cx="7" cy="17" r="1" fill="rgba(255,127,42,1)"/>
  <circle cx="8" cy="17" r="1" fill="rgba(255,127,42,1)"/>
  <circle cx="9" cy="17" r="1" fill="rgba(255,127,42,1)"/>
  <circle cx="10" cy="17" r="1" fill="rgba(255,127,42,1)"/>
  <circle cx="11" cy="17" r="1" fill="rgba(255,127,42,1)"/>
  <circle cx="12" cy="17" r="1" fill="rgba(255,127,42,1)"/>
  <circle cx="13" cy="17" r="1" fill="rgba(255,127,42,1)"/>
  <circle cx="14" cy="17" r="1" fill="rgba(255,127,42,1)"/>
  <circle cx="15" cy="17" r="1" fill="rgba(255,127,42,1)"/>
  <circle cx="16" cy="17" r="1" fill="rgba(255,127,42,1)"/>
  <circle cx="17" cy="17" r="1" fill="rgba(255,127,42,1)"/>
  <circle cx="18" cy="17" r="1" fill="rgba(255,127,42,1)"/>
  <circle cx="19" cy="17" r="1" fill="rgba(255,127,42,1)"/>
  <circle cx="20" cy="17" r="1" fill="rgba(255,127,42,1)"/>
  <circle cx="21" cy="17" r="1" fill="rgba(255,127,42,1)"/>
  <circle cx="22" cy="17" r="1" fill="rgba(255,127,42,1)"/>
  <circle cx="23" cy="17" r="1" fill="rgba(100%,61.9608%,36.4691%,1)"/>
  <circle cx="0" cy="18" r="1" fill="rgba(255,131,48,1)"/>
  <circle cx="1" cy="18" r="1" fill="rgba(255,127,42,1)"/>
  <circle cx="2" cy="18" r="1" fill="rgba(255,127,42,1)"/>
  <circle cx="3" cy="18" r="1" fill="rgba(255,127,42,1)"/>
  <circle cx="4" cy="18" r="1" fill="rgba(255,127,42,1)"/>
  <circle cx="5" cy="18" r="1" fill="rgba(255,127,42,1)"/>
  <circle cx="6" cy="18" r="1" fill="rgba(255,127,42,1)"/>
  <circle cx="7" cy="18" r="1" fill="rgba(255,127,42,1)"/>
  <circle cx="8" cy="18" r="1" fill="rgba(255,127,42,1)"/>
  <circle cx="9" cy="18" r="1" fill="rgba(255,127,42,1)"/>
  <circle cx="10" cy="18" r="1" fill="rgba(255,127,42,1)"/>
  <circle cx="11" cy="18" r="1" fill="rgba(255,127,42,1)"/>
  <circle cx="12" cy="18" r="1" fill="rgba(255,127,42,1)"/>
  <circle cx="13" cy="18" r="1" fill="rgba(255,127,42,1)"/>
  <circle cx="14" cy="18" r="1" fill="rgba(255,127,42,1)"/>
  <circle cx="15" cy="18" r="1" fill="rgba(255,127,42,1)"/>
  <circle cx="16" cy="18" r="1" fill="rgba(255,127,42,1)"/>
  <circle cx="17" cy="18" r="1" fill="rgba(255,127,42,1)"/>
  <circle cx="18" cy="18" r="1" fill="rgba(255,127,42,1)"/>
  <circle cx="19" cy="18" r="1" fill="rgba(255,127,42,1)"/>
  <circle cx="20" cy="18" r="1" fill="rgba(255,127,42,1)"/>
  <circle cx="21" cy="18" r="1" fill="rgba(255,127,42,1)"/>
  <circle cx="22" cy="18" r="1" fill="rgba(255,127,42,1)"/>
  <circle cx="23" cy="18" r="1" fill="rgba(100%,50.9789%,18.4298%,1)"/>
  <circle cx="0" cy="19" r="1" fill="rgba(255,135,55,1)"/>
  <circle cx="1" cy="19" r="1" fill="rgba(255,127,42,1)"/>
  <circle cx="2" cy="19" r="1" fill="rgba(255,127,42,1)"/>
  <circle cx="3" cy="19" r="1" fill="rgba(255,127,42,1)"/>
  <circle cx="4" cy="19" r="1" fill="rgba(255,127,42,1)"/>
  <circle cx="5" cy="19" r="1" fill="rgba(255,127,42,1)"/>
  <circle cx="6" cy="19" r="1" fill="rgba(255,127,42,1)"/>
  <circle cx="7" cy="19" r="1" fill="rgba(255,127,42,1)"/>
  <circle cx="8" cy="19" r="1" fill="rgba(255,127,42,1)"/>
  <circle cx="9" cy="19" r="1" fill="rgba(255,127,42,1)"/>
  <circle cx="10" cy="19" r="1" fill="rgba(255,127,42,1)"/>
  <circle cx="11" cy="19" r="1" fill="rgba(255,127,42,1)"/>
  <circle cx="12" cy="19" r="1" fill="rgba(255,127,42,1)"/>
  <circle cx="13" cy="19" r="1" fill="rgba(255,127,42,1)"/>
  <circle cx="14" cy="19" r="1" fill="rgba(255,127,42,1)"/>
  <circle cx="15" cy="19" r="1" fill="rgba(255,127,42,1)"/>
  <circle cx="16" cy="19" r="1" fill="rgba(255,127,42,1)"/>
  <circle cx="17" cy="19" r="1" fill="rgba(255,127,42,1)"/>
  <circle cx="18" cy="19" r="1" fill="rgba(255,127,42,1)"/>
  <circle cx="19" cy="19" r="1" fill="rgba(255,127,42,1)"/>
  <circle cx="20" cy="19" r="1" fill="rgba(255,127,42,1)"/>
  <circle cx="21" cy="19" r="1" fill="rgba(255,127,42,1)"/>
  <circle cx="22" cy="19" r="1" fill="rgba(255,127,42,1)"/>
  <circle cx="23" cy="19" r="1" fill="rgba(255,134,54,1)"/>
  <circle cx="0" cy="20" r="1" fill="rgba(100%,50.5867%,17.6455%,1)"/>
  <circle cx="1" cy="20" r="1" fill="rgba(255,127,42,1)"/>
  <circle cx="2" cy="20" r="1" fill="rgba(255,127,42,1)"/>
  <circle cx="3" cy="20" r="1" fill="rgba(255,127,42,1)"/>
  <circle cx="4" cy="20" r="1" fill="rgba(255,127,42,1)"/>
  <circle cx="5" cy="20" r="1" fill="rgba(255,127,42,1)"/>
  <circle cx="6" cy="20" r="1" fill="rgba(255,127,42,1)"/>
  <circle cx="7" cy="20" r="1" fill="rgba(255,127,42,1)"/>
  <circle cx="8" cy="20" r="1" fill="rgba(255,127,42,1)"/>
  <circle cx="9" cy="20" r="1" fill="rgba(255,127,42,1)"/>
  <circle cx="10" cy="20" r="1" fill="rgba(255,127,42,1)"/>
  <circle cx="11" cy="20" r="1" fill="rgba(255,127,42,1)"/>
  <circle cx="12" cy="20" r="1" fill="rgba(255,127,42,1)"/>
  <circle cx="13" cy="20" r="1" fill="rgba(255,127,42,1)"/>
  <circle cx="14" cy="20" r="1" fill="rgba(255,127,42,1)"/>
  <circle cx="15" cy="20" r="1" fill="rgba(255,127,42,1)"/>
  <circle cx="16" cy="20" r="1" fill="rgba(255,127,42,1)"/>
  <circle cx="17" cy="20" r="1" fill="rgba(255,127,42,1)"/>
  <circle cx="18" cy="20" r="1" fill="rgba(255,127,42,1)"/>
  <circle cx="19" cy="20" r="1" fill="rgba(255,127,42,1)"/>
  <circle cx="20" cy="20" r="1" fill="rgba(255,127,42,1)"/>
  <circle cx="21" cy="20" r="1" fill="rgba(255,127,42,1)"/>
  <circle cx="22" cy="20" r="1" fill="rgba(255,127,42,1)"/>
  <circle cx="23" cy="20" r="1" fill="rgba(100%,50.9804%,18.0377%,1)"/>
</svg>
