<?xml version="1.0" standalone="no"?>
<!DOCTYPE svg PUBLIC "-//W3C//DTD SVG 20010904//EN"
  "http://www.w3.org/TR/2001/REC-SVG-20010904/DTD/svg10.dtd">
<svg width="24" height="21">
  <circle cx="0" cy="0" r="1" fill="white"/>
  <circle cx="1" cy="0" r="1" fill="white"/>
  <circle cx="2" cy="0" r="1" fill="white"/>
  <circle cx="3" cy="0" r="1" fill="white"/>
  <circle cx="4" cy="0" r="1" fill="white"/>
  <circle cx="5" cy="0" r="1" fill="white"/>
  <circle cx="6" cy="0" r="1" fill="white"/>
  <circle cx="7" cy="0" r="1" fill="white"/>
  <circle cx="8" cy="0" r="1" fill="rgba(184,255,255,1)"/>
  <circle cx="9" cy="0" r="1" fill="rgba(5.88235%,97.6455%,97.6455%,1)"/>
  <circle cx="10" cy="0" r="1" fill="rgba(1.56863%,95.6847%,95.6847%,1)"/>
  <circle cx="11" cy="0" r="1" fill="rgba(0,247,247,1)"/>
  <circle cx="12" cy="0" r="1" fill="rgba(0,247,247,1)"/>
  <circle cx="13" cy="0" r="1" fill="rgba(4,245,245,1)"/>
  <circle cx="14" cy="0" r="1" fill="rgba(28,247,247,1)"/>
  <circle cx="15" cy="0" r="1" fill="rgba(209,255,255,1)"/>
  <circle cx="16" cy="0" r="1" fill="white"/>
  <circle cx="17" cy="0" r="1" fill="white"/>
  <circle cx="18" cy="0" r="1" fill="white"/>
  <circle cx="19" cy="0" r="1" fill="white"/>
  <circle cx="20" cy="0" r="1" fill="white"/>
  <circle cx="21" cy="0" r="1" fill="white"/>
  <circle cx="22" cy="0" r="1" fill="white"/>
  <circle cx="23" cy="0" r="1" fill="white"/>
  <circle cx="0" cy="1" r="1" fill="white"/>
  <circle cx="1" cy="1" r="1" fill="white"/>
  <circle cx="2" cy="1" r="1" fill="white"/>
  <circle cx="3" cy="1" r="1" fill="white"/>
  <circle cx="4" cy="1" r="1" fill="white"/>
  <circle cx="5" cy="1" r="1" fill="white"/>
  <circle cx="6" cy="1" r="1" fill="white"/>
  <circle cx="7" cy="1" r="1" fill="rgba(183,255,255,1)"/>
  <circle cx="8" cy="1" r="1" fill="rgba(4,249,249,1)"/>
  <circle cx="9" cy="1" r="1" fill="cyan"/>
  <circle cx="10" cy="1" r="1" fill="cyan"/>
  <circle cx="11" cy="1" r="1" fill="cyan"/>
  <circle cx="12" cy="1" r="1" fill="cyan"/>
  <circle cx="13" cy="1" r="1" fill="cyan"/>
  <circle cx="14" cy="1" r="1" fill="rgba(0,254,254,1)"/>
  <circle cx="15" cy="1" r="1" fill="rgba(2.7451%,98.4298%,98.4298%,1)"/>
  <circle cx="16" cy="1" r="1" fill="rgba(215,255,255,1)"/>
  <circle cx="17" cy="1" r="1" fill="white"/>
  <circle cx="18" cy="1" r="1" fill="white"/>
  <circle cx="19" cy="1" r="1" fill="white"/>
  <circle cx="20" cy="1" r="1" fill="white"/>
  <circle cx="21" cy="1" r="1" fill="white"/>
  <circle cx="22" cy="1" r="1" fill="white"/>
  <circle cx="23" cy="1" r="1" fill="white"/>
  <circle cx="0" cy="2" r="1" fill="white"/>
  <circle cx="1" cy="2" r="1" fill="white"/>
  <circle cx="2" cy="2" r="1" fill="white"/>
  <circle cx="3" cy="2" r="1" fill="white"/>
  <circle cx="4" cy="2" r="1" fill="white"/>
  <circle cx="5" cy="2" r="1" fill="white"/>
  <circle cx="6" cy="2" r="1" fill="rgba(246,255,255,1)"/>
  <circle cx="7" cy="2" r="1" fill="rgba(11,249,249,1)"/>
  <circle cx="8" cy="2" r="1" fill="cyan"/>
  <circle cx="9" cy="2" r="1" fill="cyan"/>
  <circle cx="10" cy="2" r="1" fill="cyan"/>
  <circle cx="11" cy="2" r="1" fill="cyan"/>
  <circle cx="12" cy="2" r="1" fill="cyan"/>
  <circle cx="13" cy="2" r="1" fill="cyan"/>
  <circle cx="14" cy="2" r="1" fill="cyan"/>
  <circle cx="15" cy="2" r="1" fill="rgba(0,254,254,1)"/>
  <circle cx="16" cy="2" r="1" fill="rgba(36,245,245,1)"/>
  <circle cx="17" cy="2" r="1" fill="white"/>
  <circle cx="18" cy="2" r="1" fill="white"/>
  <circle cx="19" cy="2" r="1" fill="white"/>
  <circle cx="20" cy="2" r="1" fill="white"/>
  <circle cx="21" cy="2" r="1" fill="white"/>
  <circle cx="22" cy="2" r="1" fill="white"/>
  <circle cx="23" cy="2" r="1" fill="white"/>
  <circle cx="0" cy="3" r="1" fill="white"/>
  <circle cx="1" cy="3" r="1" fill="white"/>
  <circle cx="2" cy="3" r="1" fill="white"/>
  <circle cx="3" cy="3" r="1" fill="white"/>
  <circle cx="4" cy="3" r="1" fill="white"/>
  <circle cx="5" cy="3" r="1" fill="white"/>
  <circle cx="6" cy="3" r="1" fill="rgba(169,255,255,1)"/>
  <circle cx="7" cy="3" r="1" fill="rgba(0.784314%,95.6847%,95.6847%,1)"/>
  <circle cx="8" cy="3" r="1" fill="cyan"/>
  <circle cx="9" cy="3" r="1" fill="cyan"/>
  <circle cx="10" cy="3" r="1" fill="cyan"/>
  <circle cx="11" cy="3" r="1" fill="cyan"/>
  <circle cx="12" cy="3" r="1" fill="cyan"/>
  <circle cx="13" cy="3" r="1" fill="cyan"/>
  <circle cx="14" cy="3" r="1" fill="cyan"/>
  <circle cx="15" cy="3" r="1" fill="cyan"/>
  <circle cx="16" cy="3" r="1" fill="rgba(4,248,248,1)"/>
  <circle cx="17" cy="3" r="1" fill="rgba(209,255,255,1)"/>
  <circle cx="18" cy="3" r="1" fill="white"/>
  <circle cx="19" cy="3" r="1" fill="white"/>
  <circle cx="20" cy="3" r="1" fill="white"/>
  <circle cx="21" cy="3" r="1" fill="white"/>
  <circle cx="22" cy="3" r="1" fill="white"/>
  <circle cx="23" cy="3" r="1" fill="white"/>
  <circle cx="0" cy="4" r="1" fill="white"/>
  <circle cx="1" cy="4" r="1" fill="white"/>
  <circle cx="2" cy="4" r="1" fill="white"/>
  <circle cx="3" cy="4" r="1" fill="white"/>
  <circle cx="4" cy="4" r="1" fill="white"/>
  <circle cx="5" cy="4" r="1" fill="white"/>
  <circle cx="6" cy="4" r="1" fill="rgba(44.3137%,98.4298%,98.4298%,1)"/>
  <circle cx="7" cy="4" r="1" fill="rgba(0,254,254,1)"/>
  <circle cx="8" cy="4" r="1" fill="cyan"/>
  <circle cx="9" cy="4" r="1" fill="cyan"/>
  <circle cx="10" cy="4" r="1" fill="cyan"/>
  <circle cx="11" cy="4" r="1" fill="cyan"/>
  <circle cx="12" cy="4" r="1" fill="cyan"/>
  <circle cx="13" cy="4" r="1" fill="cyan"/>
  <circle cx="14" cy="4" r="1" fill="cyan"/>
  <circle cx="15" cy="4" r="1" fill="cyan"/>
  <circle cx="16" cy="4" r="1" fill="rgba(0.784314%,96.4691%,96.4691%,1)"/>
  <circle cx="17" cy="4" r="1" fill="rgba(156,255,255,1)"/>
  <circle cx="18" cy="4" r="1" fill="white"/>
  <circle cx="19" cy="4" r="1" fill="white"/>
  <circle cx="20" cy="4" r="1" fill="white"/>
  <circle cx="21" cy="4" r="1" fill="white"/>
  <circle cx="22" cy="4" r="1" fill="white"/>
  <circle cx="23" cy="4" r="1" fill="white"/>
  <circle cx="0" cy="5" r="1" fill="white"/>
  <circle cx="1" cy="5" r="1" fill="white"/>
  <circle cx="2" cy="5" r="1" fill="white"/>
  <circle cx="3" cy="5" r="1" fill="white"/>
  <circle cx="4" cy="5" r="1" fill="white"/>
  <circle cx="5" cy="5" r="1" fill="white"/>
  <circle cx="6" cy="5" r="1" fill="rgba(105,250,250,1)"/>
  <circle cx="7" cy="5" r="1" fill="cyan"/>
  <circle cx="8" cy="5" r="1" fill="cyan"/>
  <circle cx="9" cy="5" r="1" fill="cyan"/>
  <circle cx="10" cy="5" r="1" fill="cyan"/>
  <circle cx="11" cy="5" r="1" fill="cyan"/>
  <circle cx="12" cy="5" r="1" fill="cyan"/>
  <circle cx="13" cy="5" r="1" fill="cyan"/>
  <circle cx="14" cy="5" r="1" fill="cyan"/>
  <circle cx="15" cy="5" r="1" fill="cyan"/>
  <circle cx="16" cy="5" r="1" fill="rgba(0.392157%,96.8612%,96.8612%,1)"/>
  <circle cx="17" cy="5" r="1" fill="rgba(151,255,255,1)"/>
  <circle cx="18" cy="5" r="1" fill="white"/>
  <circle cx="19" cy="5" r="1" fill="white"/>
  <circle cx="20" cy="5" r="1" fill="white"/>
  <circle cx="21" cy="5" r="1" fill="white"/>
  <circle cx="22" cy="5" r="1" fill="white"/>
  <circle cx="23" cy="5" r="1" fill="white"/>
  <circle cx="0" cy="6" r="1" fill="white"/>
  <circle cx="1" cy="6" r="1" fill="white"/>
  <circle cx="2" cy="6" r="1" fill="white"/>
  <circle cx="3" cy="6" r="1" fill="white"/>
  <circle cx="4" cy="6" r="1" fill="white"/>
  <circle cx="5" cy="6" r="1" fill="white"/>
  <circle cx="6" cy="6" r="1" fill="rgba(153,255,255,1)"/>
  <circle cx="7" cy="6" r="1" fill="rgba(0.392157%,96.0769%,96.0769%,1)"/>
  <circle cx="8" cy="6" r="1" fill="cyan"/>
  <circle cx="9" cy="6" r="1" fill="cyan"/>
  <circle cx="10" cy="6" r="1" fill="cyan"/>
  <circle cx="11" cy="6" r="1" fill="cyan"/>
  <circle cx="12" cy="6" r="1" fill="cyan"/>
  <circle cx="13" cy="6" r="1" fill="cyan"/>
  <circle cx="14" cy="6" r="1" fill="cyan"/>
  <circle cx="15" cy="6" r="1" fill="cyan"/>
  <circle cx="16" cy="6" r="1" fill="rgba(1.56863%,95.6847%,95.6847%,1)"/>
  <circle cx="17" cy="6" r="1" fill="rgba(192,255,255,1)"/>
  <circle cx="18" cy="6" r="1" fill="white"/>
  <circle cx="19" cy="6" r="1" fill="white"/>
  <circle cx="20" cy="6" r="1" fill="white"/>
  <circle cx="21" cy="6" r="1" fill="white"/>
  <circle cx="22" cy="6" r="1" fill="white"/>
  <circle cx="23" cy="6" r="1" fill="white"/>
  <circle cx="0" cy="7" r="1" fill="white"/>
  <circle cx="1" cy="7" r="1" fill="white"/>
  <circle cx="2" cy="7" r="1" fill="white"/>
  <circle cx="3" cy="7" r="1" fill="white"/>
  <circle cx="4" cy="7" r="1" fill="white"/>
  <circle cx="5" cy="7" r="1" fill="white"/>
  <circle cx="6" cy="7" r="1" fill="rgba(232,255,255,1)"/>
  <circle cx="7" cy="7" r="1" fill="rgba(5,250,250,1)"/>
  <circle cx="8" cy="7" r="1" fill="cyan"/>
  <circle cx="9" cy="7" r="1" fill="cyan"/>
  <circle cx="10" cy="7" r="1" fill="cyan"/>
  <circle cx="11" cy="7" r="1" fill="cyan"/>
  <circle cx="12" cy="7" r="1" fill="cyan"/>
  <circle cx="13" cy="7" r="1" fill="cyan"/>
  <circle cx="14" cy="7" r="1" fill="cyan"/>
  <circle cx="15" cy="7" r="1" fill="cyan"/>
  <circle cx="16" cy="7" r="1" fill="rgba(14,249,249,1)"/>
  <circle cx="17" cy="7" r="1" fill="rgba(251,255,255,1)"/>
  <circle cx="18" cy="7" r="1" fill="white"/>
  <circle cx="19" cy="7" r="1" fill="white"/>
  <circle cx="20" cy="7" r="1" fill="white"/>
  <circle cx="21" cy="7" r="1" fill="white"/>
  <circle cx="22" cy="7" r="1" fill="white"/>
  <circle cx="23" cy="7" r="1" fill="white"/>
  <circle cx="0" cy="8" r="1" fill="white"/>
  <circle cx="1" cy="8" r="1" fill="white"/>
  <circle cx="2" cy="8" r="1" fill="white"/>
  <circle cx="3" cy="8" r="1" fill="white"/>
  <circle cx="4" cy="8" r="1" fill="white"/>
  <circle cx="5" cy="8" r="1" fill="white"/>
  <circle cx="6" cy="8" r="1" fill="white"/>
  <circle cx="7" cy="8" r="1" fill="rgba(129,250,250,1)"/>
  <circle cx="8" cy="8" r="1" fill="rgba(0.784314%,96.4691%,96.4691%,1)"/>
  <circle cx="9" cy="8" r="1" fill="cyan"/>
  <circle cx="10" cy="8" r="1" fill="cyan"/>
  <circle cx="11" cy="8" r="1" fill="cyan"/>
  <circle cx="12" cy="8" r="1" fill="cyan"/>
  <circle cx="13" cy="8" r="1" fill="cyan"/>
  <circle cx="14" cy="8" r="1" fill="cyan"/>
  <circle cx="15" cy="8" r="1" fill="rgba(4,248,248,1)"/>
  <circle cx="16" cy="8" r="1" fill="rgba(179,255,255,1)"/>
  <circle cx="17" cy="8" r="1" fill="white"/>
  <circle cx="18" cy="8" r="1" fill="white"/>
  <circle cx="19" cy="8" r="1" fill="white"/>
  <circle cx="20" cy="8" r="1" fill="white"/>
  <circle cx="21" cy="8" r="1" fill="white"/>
  <circle cx="22" cy="8" r="1" fill="white"/>
  <circle cx="23" cy="8" r="1" fill="white"/>
  <circle cx="0" cy="9" r="1" fill="white"/>
  <circle cx="1" cy="9" r="1" fill="white"/>
  <circle cx="2" cy="9" r="1" fill="white"/>
  <circle cx="3" cy="9" r="1" fill="white"/>
  <circle cx="4" cy="9" r="1" fill="white"/>
  <circle cx="5" cy="9" r="1" fill="white"/>
  <circle cx="6" cy="9" r="1" fill="white"/>
  <circle cx="7" cy="9" r="1" fill="white"/>
  <circle cx="8" cy="9" r="1" fill="rgba(115,250,250,1)"/>
  <circle cx="9" cy="9" r="1" fill="rgba(1.56863%,98.0377%,98.0377%,1)"/>
  <circle cx="10" cy="9" r="1" fill="rgba(0,250,250,1)"/>
  <circle cx="11" cy="9" r="1" fill="cyan"/>
  <circle cx="12" cy="9" r="1" fill="cyan"/>
  <circle cx="13" cy="9" r="1" fill="rgba(0,247,247,1)"/>
  <circle cx="14" cy="9" r="1" fill="rgba(1.56863%,98.4298%,98.4298%,1)"/>
  <circle cx="15" cy="9" r="1" fill="rgba(158,253,253,1)"/>
  <circle cx="16" cy="9" r="1" fill="white"/>
  <circle cx="17" cy="9" r="1" fill="white"/>
  <circle cx="18" cy="9" r="1" fill="white"/>
  <circle cx="19" cy="9" r="1" fill="white"/>
  <circle cx="20" cy="9" r="1" fill="white"/>
  <circle cx="21" cy="9" r="1" fill="white"/>
  <circle cx="22" cy="9" r="1" fill="white"/>
  <circle cx="23" cy="9" r="1" fill="white"/>
  <circle cx="0" cy="10" r="1" fill="white"/>
  <circle cx="1" cy="10" r="1" fill="white"/>
  <circle cx="2" cy="10" r="1" fill="white"/>
  <circle cx="3" cy="10" r="1" fill="white"/>
  <circle cx="4" cy="10" r="1" fill="white"/>
  <circle cx="5" cy="10" r="1" fill="white"/>
  <circle cx="6" cy="10" r="1" fill="white"/>
  <circle cx="7" cy="10" r="1" fill="white"/>
  <circle cx="8" cy="10" r="1" fill="white"/>
  <circle cx="9" cy="10" r="1" fill="rgba(212,255,255,1)"/>
  <circle cx="10" cy="10" r="1" fill="rgba(112,251,251,1)"/>
  <circle cx="11" cy="10" r="1" fill="rgba(57,243,243,1)"/>
  <circle cx="12" cy="10" r="1" fill="rgba(60,243,243,1)"/>
  <circle cx="13" cy="10" r="1" fill="rgba(129,254,254,1)"/>
  <circle cx="14" cy="10" r="1" fill="rgba(226,255,255,1)"/>
  <circle cx="15" cy="10" r="1" fill="white"/>
  <circle cx="16" cy="10" r="1" fill="white"/>
  <circle cx="17" cy="10" r="1" fill="white"/>
  <circle cx="18" cy="10" r="1" fill="white"/>
  <circle cx="19" cy="10" r="1" fill="white"/>
  <circle cx="20" cy="10" r="1" fill="white"/>
  <circle cx="21" cy="10" r="1" fill="white"/>
  <circle cx="22" cy="10" r="1" fill="white"/>
  <circle cx="23" cy="10" r="1" fill="white"/>
  <circle cx="0" cy="11" r="1" fill="white"/>
  <circle cx="1" cy="11" r="1" fill="white"/>
  <circle cx="2" cy="11" r="1" fill="white"/>
  <circle cx="3" cy="11" r="1" fill="white"/>
  <circle cx="4" cy="11" r="1" fill="rgba(204,255,255,1)"/>
  <circle cx="5" cy="11" r="1" fill="rgba(33.3333%,99.9985%,99.9985%,1)"/>
  <circle cx="6" cy="11" r="1" fill="rgba(32,255,255,1)"/>
  <circle cx="7" cy="11" r="1" fill="rgba(23,255,255,1)"/>
  <circle cx="8" cy="11" r="1" fill="rgba(23,255,255,1)"/>
  <circle cx="9" cy="11" r="1" fill="rgba(23,255,255,1)"/>
  <circle cx="10" cy="11" r="1" fill="rgba(23,255,255,1)"/>
  <circle cx="11" cy="11" r="1" fill="rgba(23,255,255,1)"/>
  <circle cx="12" cy="11" r="1" fill="rgba(23,255,255,1)"/>
  <circle cx="13" cy="11" r="1" fill="rgba(23,255,255,1)"/>
  <circle cx="14" cy="11" r="1" fill="rgba(23,255,255,1)"/>
  <circle cx="15" cy="11" r="1" fill="rgba(23,255,255,1)"/>
  <circle cx="16" cy="11" r="1" fill="rgba(23,255,255,1)"/>
  <circle cx="17" cy="11" r="1" fill="rgba(15.6863%,99.9985%,99.9985%,1)"/>
  <circle cx="18" cy="11" r="1" fill="rgba(39.2157%,99.9985%,99.9985%,1)"/>
  <circle cx="19" cy="11" r="1" fill="rgba(219,255,255,1)"/>
  <circle cx="20" cy="11" r="1" fill="white"/>
  <circle cx="21" cy="11" r="1" fill="white"/>
  <circle cx="22" cy="11" r="1" fill="white"/>
  <circle cx="23" cy="11" r="1" fill="white"/>
  <circle cx="0" cy="12" r="1" fill="white"/>
  <circle cx="1" cy="12" r="1" fill="white"/>
  <circle cx="2" cy="12" r="1" fill="white"/>
  <circle cx="3" cy="12" r="1" fill="rgba(120,255,255,1)"/>
  <circle cx="4" cy="12" r="1" fill="rgba(4.31373%,99.9985%,99.9985%,1)"/>
  <circle cx="5" cy="12" r="1" fill="rgba(1,255,255,1)"/>
  <circle cx="6" cy="12" r="1" fill="cyan"/>
  <circle cx="7" cy="12" r="1" fill="cyan"/>
  <circle cx="8" cy="12" r="1" fill="cyan"/>
  <circle cx="9" cy="12" r="1" fill="cyan"/>
  <circle cx="10" cy="12" r="1" fill="cyan"/>
  <circle cx="11" cy="12" r="1" fill="cyan"/>
  <circle cx="12" cy="12" r="1" fill="cyan"/>
  <circle cx="13" cy="12" r="1" fill="cyan"/>
  <circle cx="14" cy="12" r="1" fill="cyan"/>
  <circle cx="15" cy="12" r="1" fill="cyan"/>
  <circle cx="16" cy="12" r="1" fill="cyan"/>
  <circle cx="17" cy="12" r="1" fill="cyan"/>
  <circle cx="18" cy="12" r="1" fill="rgba(5,255,255,1)"/>
  <circle cx="19" cy="12" r="1" fill="rgba(10,255,255,1)"/>
  <circle cx="20" cy="12" r="1" fill="rgba(148,255,255,1)"/>
  <circle cx="21" cy="12" r="1" fill="white"/>
  <circle cx="22" cy="12" r="1" fill="white"/>
  <circle cx="23" cy="12" r="1" fill="white"/>
  <circle cx="0" cy="13" r="1" fill="white"/>
  <circle cx="1" cy="13" r="1" fill="white"/>
  <circle cx="2" cy="13" r="1" fill="rgba(130,255,255,1)"/>
  <circle cx="3" cy="13" r="1" fill="rgba(12,255,255,1)"/>
  <circle cx="4" cy="13" r="1" fill="cyan"/>
  <circle cx="5" cy="13" r="1" fill="cyan"/>
  <circle cx="6" cy="13" r="1" fill="cyan"/>
  <circle cx="7" cy="13" r="1" fill="cyan"/>
  <circle cx="8" cy="13" r="1" fill="cyan"/>
  <circle cx="9" cy="13" r="1" fill="cyan"/>
  <circle cx="10" cy="13" r="1" fill="cyan"/>
  <circle cx="11" cy="13" r="1" fill="cyan"/>
  <circle cx="12" cy="13" r="1" fill="cyan"/>
  <circle cx="13" cy="13" r="1" fill="cyan"/>
  <circle cx="14" cy="13" r="1" fill="cyan"/>
  <circle cx="15" cy="13" r="1" fill="cyan"/>
  <circle cx="16" cy="13" r="1" fill="cyan"/>
  <circle cx="17" cy="13" r="1" fill="cyan"/>
  <circle cx="18" cy="13" r="1" fill="cyan"/>
  <circle cx="19" cy="13" r="1" fill="cyan"/>
  <circle cx="20" cy="13" r="1" fill="rgba(10,255,255,1)"/>
  <circle cx="21" cy="13" r="1" fill="rgba(150,255,255,1)"/>
  <circle cx="22" cy="13" r="1" fill="white"/>
  <circle cx="23" cy="13" r="1" fill="white"/>
  <circle cx="0" cy="14" r="1" fill="white"/>
  <circle cx="1" cy="14" r="1" fill="rgba(195,255,255,1)"/>
  <circle cx="2" cy="14" r="1" fill="rgba(8,255,255,1)"/>
  <circle cx="3" cy="14" r="1" fill="cyan"/>
  <circle cx="4" cy="14" r="1" fill="cyan"/>
  <circle cx="5" cy="14" r="1" fill="cyan"/>
  <circle cx="6" cy="14" r="1" fill="cyan"/>
  <circle cx="7" cy="14" r="1" fill="cyan"/>
  <circle cx="8" cy="14" r="1" fill="cyan"/>
  <circle cx="9" cy="14" r="1" fill="cyan"/>
  <circle cx="10" cy="14" r="1" fill="cyan"/>
  <circle cx="11" cy="14" r="1" fill="cyan"/>
  <circle cx="12" cy="14" r="1" fill="cyan"/>
  <circle cx="13" cy="14" r="1" fill="cyan"/>
  <circle cx="14" cy="14" r="1" fill="cyan"/>
  <circle cx="15" cy="14" r="1" fill="cyan"/>
  <circle cx="16" cy="14" r="1" fill="cyan"/>
  <circle cx="17" cy="14" r="1" fill="cyan"/>
  <circle cx="18" cy="14" r="1" fill="cyan"/>
  <circle cx="19" cy="14" r="1" fill="cyan"/>
  <circle cx="20" cy="14" r="1" fill="cyan"/>
  <circle cx="21" cy="14" r="1" fill="rgba(9,255,255,1)"/>
  <circle cx="22" cy="14" r="1" fill="rgba(210,255,255,1)"/>
  <circle cx="23" cy="14" r="1" fill="white"/>
  <circle cx="0" cy="15" r="1" fill="rgba(253,255,255,1)"/>
  <circle cx="1" cy="15" r="1" fill="rgba(13.7255%,99.9985%,99.9985%,1)"/>
  <circle cx="2" cy="15" r="1" fill="cyan"/>
  <circle cx="3" cy="15" r="1" fill="cyan"/>
  <circle cx="4" cy="15" r="1" fill="cyan"/>
  <circle cx="5" cy="15" r="1" fill="cyan"/>
  <circle cx="6" cy="15" r="1" fill="cyan"/>
  <circle cx="7" cy="15" r="1" fill="cyan"/>
  <circle cx="8" cy="15" r="1" fill="cyan"/>
  <circle cx="9" cy="15" r="1" fill="cyan"/>
  <circle cx="10" cy="15" r="1" fill="cyan"/>
  <circle cx="11" cy="15" r="1" fill="cyan"/>
  <circle cx="12" cy="15" r="1" fill="cyan"/>
  <circle cx="13" cy="15" r="1" fill="cyan"/>
  <circle cx="14" cy="15" r="1" fill="cyan"/>
  <circle cx="15" cy="15" r="1" fill="cyan"/>
  <circle cx="16" cy="15" r="1" fill="cyan"/>
  <circle cx="17" cy="15" r="1" fill="cyan"/>
  <circle cx="18" cy="15" r="1" fill="cyan"/>
  <circle cx="19" cy="15" r="1" fill="cyan"/>
  <circle cx="20" cy="15" r="1" fill="cyan"/>
  <circle cx="21" cy="15" r="1" fill="rgba(1,255,255,1)"/>
  <circle cx="22" cy="15" r="1" fill="rgba(45,255,255,1)"/>
  <circle cx="23" cy="15" r="1" fill="rgba(254,255,255,1)"/>
  <circle cx="0" cy="16" r="1" fill="rgba(167,255,255,1)"/>
  <circle cx="1" cy="16" r="1" fill="rgba(12,255,255,1)"/>
  <circle cx="2" cy="16" r="1" fill="cyan"/>
  <circle cx="3" cy="16" r="1" fill="cyan"/>
  <circle cx="4" cy="16" r="1" fill="cyan"/>
  <circle cx="5" cy="16" r="1" fill="cyan"/>
  <circle cx="6" cy="16" r="1" fill="cyan"/>
  <circle cx="7" cy="16" r="1" fill="cyan"/>
  <circle cx="8" cy="16" r="1" fill="cyan"/>
  <circle cx="9" cy="16" r="1" fill="cyan"/>
  <circle cx="10" cy="16" r="1" fill="cyan"/>
  <circle cx="11" cy="16" r="1" fill="cyan"/>
  <circle cx="12" cy="16" r="1" fill="cyan"/>
  <circle cx="13" cy="16" r="1" fill="cyan"/>
  <circle cx="14" cy="16" r="1" fill="cyan"/>
  <circle cx="15" cy="16" r="1" fill="cyan"/>
  <circle cx="16" cy="16" r="1" fill="cyan"/>
  <circle cx="17" cy="16" r="1" fill="cyan"/>
  <circle cx="18" cy="16" r="1" fill="cyan"/>
  <circle cx="19" cy="16" r="1" fill="cyan"/>
  <circle cx="20" cy="16" r="1" fill="cyan"/>
  <circle cx="21" cy="16" r="1" fill="cyan"/>
  <circle cx="22" cy="16" r="1" fill="rgba(4.31373%,99.9985%,99.9985%,1)"/>
  <circle cx="23" cy="16" r="1" fill="rgba(178,255,255,1)"/>
  <circle cx="0" cy="17" r="1" fill="rgba(19.2157%,99.9985%,99.9985%,1)"/>
  <circle cx="1" cy="17" r="1" fill="cyan"/>
  <circle cx="2" cy="17" r="1" fill="cyan"/>
  <circle cx="3" cy="17" r="1" fill="cyan"/>
  <circle cx="4" cy="17" r="1" fill="cyan"/>
  <circle cx="5" cy="17" r="1" fill="cyan"/>
  <circle cx="6" cy="17" r="1" fill="cyan"/>
  <circle cx="7" cy="17" r="1" fill="cyan"/>
  <circle cx="8" cy="17" r="1" fill="cyan"/>
  <circle cx="9" cy="17" r="1" fill="cyan"/>
  <circle cx="10" cy="17" r="1" fill="cyan"/>
  <circle cx="11" cy="17" r="1" fill="cyan"/>
  <circle cx="12" cy="17" r="1" fill="cyan"/>
  <circle cx="13" cy="17" r="1" fill="cyan"/>
  <circle cx="14" cy="17" r="1" fill="cyan"/>
  <circle cx="15" cy="17" r="1" fill="cyan"/>
  <circle cx="16" cy="17" r="1" fill="cyan"/>
  <circle cx="17" cy="17" r="1" fill="cyan"/>
  <circle cx="18" cy="17" r="1" fill="cyan"/>
  <circle cx="19" cy="17" r="1" fill="cyan"/>
  <circle cx="20" cy="17" r="1" fill="cyan"/>
  <circle cx="21" cy="17" r="1" fill="cyan"/>
  <circle cx="22" cy="17" r="1" fill="cyan"/>
  <circle cx="23" cy="17" r="1" fill="rgba(61,255,255,1)"/>
  <circle cx="0" cy="18" r="1" fill="rgba(7,255,255,1)"/>
  <circle cx="1" cy="18" r="1" fill="cyan"/>
  <circle cx="2" cy="18" r="1" fill="cyan"/>
  <circle cx="3" cy="18" r="1" fill="cyan"/>
  <circle cx="4" cy="18" r="1" fill="cyan"/>
  <circle cx="5" cy="18" r="1" fill="cyan"/>
  <circle cx="6" cy="18" r="1" fill="cyan"/>
  <circle cx="7" cy="18" r="1" fill="cyan"/>
  <circle cx="8" cy="18" r="1" fill="cyan"/>
  <circle cx="9" cy="18" r="1" fill="cyan"/>
  <circle cx="10" cy="18" r="1" fill="cyan"/>
  <circle cx="11" cy="18" r="1" fill="cyan"/>
  <circle cx="12" cy="18" r="1" fill="cyan"/>
  <circle cx="13" cy="18" r="1" fill="cyan"/>
  <circle cx="14" cy="18" r="1" fill="cyan"/>
  <circle cx="15" cy="18" r="1" fill="cyan"/>
  <circle cx="16" cy="18" r="1" fill="cyan"/>
  <circle cx="17" cy="18" r="1" fill="cyan"/>
  <circle cx="18" cy="18" r="1" fill="cyan"/>
  <circle cx="19" cy="18" r="1" fill="cyan"/>
  <circle cx="20" cy="18" r="1" fill="cyan"/>
  <circle cx="21" cy="18" r="1" fill="cyan"/>
  <circle cx="22" cy="18" r="1" fill="cyan"/>
  <circle cx="23" cy="18" r="1" fill="rgba(6,255,255,1)"/>
  <circle cx="0" cy="19" r="1" fill="rgba(15,255,255,1)"/>
  <circle cx="1" cy="19" r="1" fill="cyan"/>
  <circle cx="2" cy="19" r="1" fill="cyan"/>
  <circle cx="3" cy="19" r="1" fill="cyan"/>
  <circle cx="4" cy="19" r="1" fill="cyan"/>
  <circle cx="5" cy="19" r="1" fill="cyan"/>
  <circle cx="6" cy="19" r="1" fill="cyan"/>
  <circle cx="7" cy="19" r="1" fill="cyan"/>
  <circle cx="8" cy="19" r="1" fill="cyan"/>
  <circle cx="9" cy="19" r="1" fill="cyan"/>
  <circle cx="10" cy="19" r="1" fill="cyan"/>
  <circle cx="11" cy="19" r="1" fill="cyan"/>
  <circle cx="12" cy="19" r="1" fill="cyan"/>
  <circle cx="13" cy="19" r="1" fill="cyan"/>
  <circle cx="14" cy="19" r="1" fill="cyan"/>
  <circle cx="15" cy="19" r="1" fill="cyan"/>
  <circle cx="16" cy="19" r="1" fill="cyan"/>
  <circle cx="17" cy="19" r="1" fill="cyan"/>
  <circle cx="18" cy="19" r="1" fill="cyan"/>
  <circle cx="19" cy="19" r="1" fill="cyan"/>
  <circle cx="20" cy="19" r="1" fill="cyan"/>
  <circle cx="21" cy="19" r="1" fill="cyan"/>
  <circle cx="22" cy="19" r="1" fill="cyan"/>
  <circle cx="23" cy="19" r="1" fill="rgba(15,255,255,1)"/>
  <circle cx="0" cy="20" r="1" fill="rgba(4,255,255,1)"/>
  <circle cx="1" cy="20" r="1" fill="cyan"/>
  <circle cx="2" cy="20" r="1" fill="cyan"/>
  <circle cx="3" cy="20" r="1" fill="cyan"/>
  <circle cx="4" cy="20" r="1" fill="cyan"/>
  <circle cx="5" cy="20" r="1" fill="cyan"/>
  <circle cx="6" cy="20" r="1" fill="cyan"/>
  <circle cx="7" cy="20" r="1" fill="cyan"/>
  <circle cx="8" cy="20" r="1" fill="cyan"/>
  <circle cx="9" cy="20" r="1" fill="cyan"/>
  <circle cx="10" cy="20" r="1" fill="cyan"/>
  <circle cx="11" cy="20" r="1" fill="cyan"/>
  <circle cx="12" cy="20" r="1" fill="cyan"/>
  <circle cx="13" cy="20" r="1" fill="cyan"/>
  <circle cx="14" cy="20" r="1" fill="cyan"/>
  <circle cx="15" cy="20" r="1" fill="cyan"/>
  <circle cx="16" cy="20" r="1" fill="cyan"/>
  <circle cx="17" cy="20" r="1" fill="cyan"/>
  <circle cx="18" cy="20" r="1" fill="cyan"/>
  <circle cx="19" cy="20" r="1" fill="cyan"/>
  <circle cx="20" cy="20" r="1" fill="cyan"/>
  <circle cx="21" cy="20" r="1" fill="cyan"/>
  <circle cx="22" cy="20" r="1" fill="cyan"/>
  <circle cx="23" cy="20" r="1" fill="rgba(5,255,255,1)"/>
</svg>
